<svg fill="#5168ff" enable-background="new 0 0 1024 1024" viewBox="0 0 1024 1024" xmlns="http://www.w3.org/2000/svg"><g><path d="m664.28 176.61-9.84 9.87-10.6 10.64-91.14 91.45c-25.47-28.32-45.11-61.53-57.55-97.3 35.13-17.33 68.52-27.2 97.8-29.48 4.4-.35 8.72-.52 12.93-.52 5.93 0 11.66.34 17.17 1.03h.01c15.74 1.96 29.66 6.71 41.22 14.31z"/><path d="m337.88 272.36c-30.34 31.84-56.53 66.72-76.59 102.01-14.06-3.63-28.32-6.28-42.7-7.94-4.97-.58-9.95-1.03-14.95-1.37-4.98-.34-9.98-.55-14.99-.65 5.32-62.61 30.9-121.28 73.18-167.84l10.64 10.61 10.65 10.6z"/><path d="m246.98 401.75c-8.7 18.28-15.64 36.4-20.69 53.99-2.76 9.57-4.95 18.99-6.57 28.19-1.64 9.22-2.69 18.23-3.15 26.98-.06 1.13-.11 2.25-.15 3.37-3.56-7.32-6.82-14.81-9.76-22.47-12.02-31.28-18.4-63.97-19.01-97.4 5.02.09 10.03.31 15.02.67 5.03.36 10.04.85 15.04 1.47 9.83 1.22 19.6 2.96 29.27 5.2z"/><path d="m599.23 131.47c-.92.02-1.85.06-2.78.11-8.94.44-18.16 1.51-27.6 3.18-9.2 1.62-18.6 3.81-28.16 6.57-17.59 5.05-35.7 11.99-53.99 20.71-2.24-9.67-3.98-19.44-5.21-29.28-.62-4.99-1.11-10-1.46-15.03-.37-4.99-.59-10-.68-15.01 33.57.59 66.4 7.01 97.78 19.13 7.53 2.91 14.9 6.11 22.1 9.62z"/><path d="m459.32 176.34c-34.62 19.67-68.85 45.26-100.19 74.85l-54.71-54.53-10.65-10.61-10.64-10.61c46.29-41.42 104.34-66.47 166.23-71.73.1 5.01.32 10 .66 14.99.33 4.99.79 9.98 1.36 14.94 1.66 14.39 4.31 28.65 7.94 42.7z"/><path d="m760.06 383.42c-5.02-.09-10.03-.32-15.02-.67-5.03-.36-10.04-.85-15.03-1.48-9.84-1.22-19.61-2.96-29.28-5.2 8.71-18.28 15.65-36.4 20.7-53.99 2.76-9.57 4.96-18.96 6.58-28.16v-.02c1.63-9.23 2.69-18.24 3.15-26.99.06-1.12.11-2.24.14-3.34 3.57 7.32 6.82 14.81 9.76 22.46 12.02 31.27 18.39 63.96 19 97.39z"/><path d="m759.07 413.41c-5.24 61.57-30.06 119.34-71.1 165.52l-10.64-10.61-10.66-10.62-54.68-54.5c29.43-31.22 54.87-65.31 74.44-99.76 14.06 3.64 28.31 6.29 42.7 7.94v.01c4.96.57 9.95 1.03 14.94 1.36 4.99.34 9.99.56 15 .66z"/><path d="m666.91 600.29c-46.67 42.67-105.62 68.48-168.55 73.84-.1-5.01-.31-10.01-.65-15-.34-5-.79-9.98-1.37-14.95-1.66-14.39-4.31-28.64-7.94-42.7 35.45-20.15 70.48-46.48 102.44-77.01l54.79 54.61 10.64 10.6z"/><path d="m468.37 675.12c-33.42-.61-66.12-6.99-97.4-19.01-7.66-2.94-15.15-6.2-22.46-9.76 1.12-.04 2.23-.09 3.35-.15 8.75-.46 17.77-1.52 27-3.15 9.2-1.62 18.62-3.81 28.18-6.57 17.59-5.05 35.7-11.99 53.98-20.7 2.24 9.67 3.98 19.44 5.21 29.28.62 5 1.11 10.01 1.47 15.04.36 5 .58 10.01.67 15.02z"/><path d="m453.75 387.84-58.7 58.91c-30.39-27.66-66-49.22-104.39-63.25 18.3-31.06 41.64-61.73 68.47-89.96z"/><path d="m373.83 468.03-91.19 91.49-10.59 10.64-9.95 9.98c-7.88-11.71-12.81-25.9-14.81-41.98-1.18-9.43-1.35-19.5-.52-30.12v-.01c2.27-29.3 12.13-62.72 29.45-97.83 35.9 12.48 69.23 32.23 97.61 57.83z"/><path d="m452.57 586.54c-35.1 17.32-68.51 27.19-97.82 29.46-10.62.83-20.7.66-30.12-.52-15.72-1.95-29.63-6.7-41.18-14.27l9.84-9.88 10.61-10.64 91.13-91.43c25.46 28.32 45.11 61.53 57.54 97.28z"/><path d="m569.59 503.29c-28.32 26.98-59.12 50.44-90.32 68.82-13.98-38.28-35.47-73.79-63.03-104.13l58.76-58.96z"/><path d="m657.06 394.32c-17.8 30.22-40.39 60.09-66.33 87.69l-94.56-94.24 56.52-56.7c30.38 27.65 65.98 49.22 104.37 63.25z"/><path d="m531.49 309.84-56.56 56.76-94.53-94.22c27.68-26.07 57.68-48.77 88.05-66.66 13.99 38.28 35.48 73.79 63.04 104.12z"/><path d="m700.95 269.81c-2.27 29.3-12.14 62.71-29.45 97.81-35.9-12.49-69.22-32.23-97.6-57.83l91.17-91.49 10.61-10.64 9.94-9.97c7.88 11.71 12.81 25.89 14.81 41.97v.01c1.19 9.43 1.36 19.51.52 30.14z"/><path d="m522.32 748.89v75.53h47.41c33.83 0 61.35 27.52 61.35 61.35v35.57h-314.44v-35.57c0-33.83 27.52-61.35 61.36-61.35h47.4v-76.98c-35.44-5.27-69.78-15.69-102.26-31.02-37.79-17.83-72.17-41.92-102.18-71.6-3.25-3.2-5.04-7.48-5.06-12.05-.01-4.57 1.76-8.87 4.99-12.1l19.43-19.41 4.38-4.38 21.2 21.22-4.37 4.36-10.03 10.03c53.25 48.9 118.86 78.85 190.56 86.87 21.29 2.38 42.84 2.72 64.06 1 77.42-6.21 150.15-39.73 204.81-94.38 124.82-124.83 126.72-328.28 6.48-459.47l-10.05 9.99-4.5 4.48-21.15-21.28 4.42-4.4 19.52-19.4c3.22-3.2 7.48-4.96 12.01-4.96h.07c4.56.02 8.84 1.82 12.04 5.06 68.26 69.03 106.12 160.13 106.62 256.51.5 96.5-36.52 186.95-104.25 254.68-30.41 30.41-65.56 54.77-104.46 72.4-33.4 15.13-68.78 24.97-105.36 29.3z"/></g></svg>
