<svg fill="#5168ff" enable-background="new 0 0 1024 1024" viewBox="0 0 1024 1024" xmlns="http://www.w3.org/2000/svg"><g><path d="m218.8 325.5v135.4c0 9.7-.1 19.3-.1 29-31.2-26.5-62.3-53.1-93.5-79.6-.2-.1-.3-.3-.4-.4 10.9-9.8 21.7-19.5 32.6-29.2 20.5-18.4 41-36.8 61.4-55.2z"/><path d="m899.3 409.9c-.2.1-.3.3-.5.4-20.9 17.8-41.8 35.6-62.7 53.4-14.6 12.4-29.1 24.8-43.7 37.2.8-8.6 1.6-17.2 2.4-25.8 2-21.6 4.1-43.2 6.1-64.8 2-21.8 4.1-43.5 6.2-65.3.5-5.7 1.1-11.3 1.6-16.9 5.3 4.8 10.7 9.6 16 14.4 24.6 22.2 49.1 44.4 73.7 66.6.3.3.6.5.9.8z"/><path d="m909.5 894.4c0 1.8-.6 4-.3 5.7-.1.6-.2 1.2-.4 1.7-.4 1.5-.8 3-1.3 4.5-.2.5-.3.8-.3 1.1 1.7-3.3-.6 2.1 0 0 0 .1-.1.2-.2.3-.9 1.8-1.8 3.5-2.9 5.2-.5.7-1 1.4-1.5 2.2-.2.3-.3.5-.4.7-.9 1-2.1 2-2.3 2.3-.2.2-1.3 1.4-2.3 2.4-.2.1-.4.2-.6.4-.7.5-1.4 1-2.2 1.5-1.5.9-3 1.8-4.6 2.6 0 0-.3.2-.7.4-.2.1-.4.1-.6.2-1.7.5-3.4 1.1-5.1 1.5-.8.2-1.6.4-2.4.5-10.5.3-21 .2-31.5.2h-702.6c-.5 0-1 0-1.4 0-.9 0-1.9-.1-2.8-.2h-.1c4.5 1-4.3-.1 0 0-1.5-.3-3.1-.6-4.6-1.1-.9-.2-1.7-.5-2.6-.8-.2-.1-.3-.1-.5-.2-.1 0-.1 0-.2 0-.5-.2-.9-.4-1-.4 0 0-.1 0-.1-.1s.2 0 .4.1c-.8-.4-1.5-.8-2.3-1.2-1.7-1-3.4-2-5-3.1 0 0 0 0-.1 0-.5-.5-1-.9-1-.9-1.3-1.2-2.5-2.4-3.7-3.7-.1-.1-.4-.4-.7-.8-1-1.6-2.1-3.1-3-4.7-.3-.4-1-1.5-1.6-2.6 0 .1-.2-.3-.4-.7.1.2.2.5.4.7 0-.1 0-.4-.2-1.1-.2-.8-.6-1.7-.8-2.5-.5-1.7-.9-3.5-1.3-5.3 0-.2-.1-.4-.1-.6 0-.7 0-1.5 0-1.6 0-.9 0-1.8 0-2.7-.1-16.4 0-32.8 0-49.2v-391.6c16.8 14.3 33.7 28.7 50.5 43 20.9 17.8 41.7 35.6 62.6 53.3.6.5 1.2 1 1.9 1.6 0 0 .1.1.1.1.4.4.8.7 1.3 1.1 9.7 8.3 19.4 16.6 29.1 24.8 33 28.2 66.1 56.3 99.2 84.5 20.9 17.8 41.9 35.7 62.8 53.5 11.1 9.4 22.2 18.9 33.3 28.3 8.6 7.3 17.2 14.7 25.8 22 1.5 1.3 3 2.5 4.5 3.8.1 0 .1.1.2.1.2.2.5.4.7.6l1.2.9c16.1 11.4 35.7 10.6 51.4-2 .3-.3.7-.5 1-.8l.3-.3c2.7-2.3 5.3-4.5 8-6.8 14.4-12.2 28.7-24.5 43.1-36.7l18.3-15.6c.4-.3.8-.7 1.1-1 32.3-27.5 64.5-55 96.8-82.4 4.6-4 9.3-7.9 13.9-11.9 13.5-11.5 26.9-23 40.4-34.4 24.3-20.7 48.6-41.4 72.9-62.1 24.9-21.2 49.7-42.4 74.6-63.6v425.9c-.1 5 0 10-.1 15z"/><path d="m783.2 173.2c0 1.5-.1 3-.2 4.5-2.8 34-6.4 67.9-9.6 101.9-.2 2.3-.4 4.5-.6 6.8l-4.6 49.1c-2.4 24.9-4.7 49.8-7.1 74.8-1.6 17.3-3.3 34.6-4.9 51.9v.3c-2.4 25.2-5.5 50.4-7.4 75.7-6.6 5.6-13.1 11.2-19.7 16.8v-407.9c9.8.9 19.6 1.8 29.4 2.8 1 .1 2.3.4 3.5.6.3.2 1 .3 2 .1.6.1 1.2.3 1.8.4.4.1 1.8.4 3 .7.1.1.4.3.9.5.8.5 1.5.8 2.3 1.3s1.5 1 2.2 1.4h.1c1.2 1.2 2.5 2.3 3.7 3.6.1.1.3.4.6.7.1.1.1.2.2.4.8 1.3 1.5 2.6 2.3 3.9-.1-.3-.2-.6-.1-.6s.4.8.6 1.5c-.1-.1-.1-.2-.2-.3-.1-.2-.2-.4-.3-.6.2.4.4.8.6 1.1 0-.1 0-.1-.1-.2.5.9.4.7.1.2.2.6.4 1.2.4 1.3.5 1.5.7 3.1 1.1 4.6-.1.9 0 1.8 0 2.7z"/><path d="m688.8 116.8c-.4-1.4-.5-3.1-.9-4.4-.2-.5-.3-1.1-.5-1.6-.1-.3-.3-.8-.5-1.3-.6-1-1.3-2.3-1.5-2.5-.3-.6-.8-1.1-1.1-1.7-.9-.9-1.7-2-2.6-2.9-.5-.4-.9-.9-1.4-1.3.3.2.5.4.5.3s-.5-.5-1.2-.9c.1 0 .1.1.2.2s.3.3.4.4c-.2-.2-.5-.5-.8-.7-1.2-.7-2.8-1.6-3.1-1.8-.1 0-.5-.3-1-.6-.4-.1-.8-.3-1-.4-1.4-.4-2.8-.9-4.2-1.2-.4-.1-.9-.1-1.4-.2-.9 0-1.9-.1-2.8-.1h-1c-2.2 0-4.5 0-6.7 0h-376.3c-1 0-2.1.1-3.1.1-.6.1-1.2.2-1.8.4-.4.1-2.1.5-3.5.9-.1.1-.2.1-.4.2-.7.5-1.6.8-2.3 1.2-.1.1-1.5.9-2.6 1.5-.2.2-.5.5-.8.7.2-.2.3-.3.5-.5-.6.4-1.1.7-1 .8 0 .1.2 0 .4-.2-.5.4-.9.8-1.3 1.2-.8.8-1.5 1.6-2.2 2.3-.1.1-.1.1-.2.2s-.1.2-.2.3c0 .1-.1.2-.1.2s0 0 0-.1c-.1.2-.2.3-.3.4-.3.6-.7 1.1-1 1.7-.4.8-.8 1.5-1.3 2.3-.2.3-.3.5-.4.7-.4 1.3-.7 2.8-.8 3.1-.1.6-.3 1.1-.4 1.7.1 1-.3 3-.3 3.8v.2 1.6 7.7 395.3c26.5 21.6 52 44.5 78 66.7 0 0 .1.1.1.1 41.9 35.7 83.8 71.4 125.7 107.1 13.7 11.6 27.3 23.3 41 34.9 2.5 2.1 5.1 4.3 7.6 6.4.1 0 .3.1.5.3h.2c.1 0 .3-.1.4-.1.1-.1.2-.1.3-.2 15.5-13.5 31.2-26.8 46.9-40.1 1.3-1.1 2.6-2.2 3.9-3.3 10.4-8.8 20.7-17.6 31.1-26.4 4.6-3.9 9.1-7.8 13.7-11.7 26.8-22.8 53.5-45.6 80.3-68.4-.4-16.6.3-33.4.3-50v-413.9c0-.3 0-.6 0-1v-5.1c.1-.7.1-1.5 0-2.3zm-282.6 79.7h135.4c11.2 0 19.5 9.2 20 20s-9.5 20-20 20h-135.4c-11.2 0-19.5-9.2-20-20s9.5-20 20-20zm198.4 253.5v.2c-.1 7.3-.9 14.4-1.9 21.6-7.9 51.9-50.7 96-102.1 106-28.1 5.5-56.2 2-82.2-9.7-23.4-10.6-43.4-29.1-56.6-50.9-13.7-22.6-20.4-50-18.3-76.3.8-10.5 2.9-20.7 6-30.5 5.2-16.1 13.4-31.1 24.4-44.6 33.7-41.3 94-57.5 143.9-38.8 38.6 14.4 67.9 45.5 80.2 83.4 4.1 12.5 6.3 25.7 6.4 39.4v.2z"/></g></svg>
