<svg clip-rule="evenodd" fill-rule="evenodd" height="512" stroke-linejoin="round" stroke-miterlimit="2" viewBox="0 0 64 64" width="512" xmlns="http://www.w3.org/2000/svg"><g><path d="m50 50h-36v-36h36zm-29-12h22v-2h-22zm0 7h22v-2h-22zm18.414-19-7.414-7.414-7.414 7.414 7.414 7.414z"/><path d="m32 21.414 4.586 4.586-4.586 4.586-4.586-4.586z"/><path d="m39.829 52c-.412 1.165-1.523 2-2.829 2h-10.002c-.795 0-1.558-.316-2.12-.878-.319-.32-.559-.704-.707-1.122z"/><path d="m53 52v6h-42v-6h11.101c.194.954.664 1.838 1.363 2.536.937.937 2.208 1.464 3.534 1.464h10.002c2.419 0 4.437-1.718 4.9-4z"/><path d="m55 53h2v4h-2z"/><path d="m7 53h2v4h-2z"/><path d="m53 6v6h-11.1c-.463-2.282-2.481-4-4.9-4h-10.002c-1.326 0-2.597.527-3.534 1.464-.699.698-1.169 1.582-1.363 2.536h-11.101v-6z"/><path d="m39.829 12h-15.658c.148-.418.388-.802.707-1.122.562-.562 1.325-.878 2.12-.878h10.002c1.306 0 2.417.835 2.829 2z"/><path d="m7 7h2v4h-2z"/><path d="m55 7h2v4h-2z"/></g></svg>