<svg enable-background="new 0 0 1024 1024" viewBox="0 0 1024 1024" xmlns="http://www.w3.org/2000/svg"><g><path d="m864.67 140.65h-705.34c-16.72 0-30.33 13.61-30.33 30.33v545.34c0 16.72 13.61 30.33 30.33 30.33h405.74c9.25 8.88 19.68 16.32 31.05 22.15.63.33 1.27.65 1.92.97v107.65l58.56-37 58.56 37v-107.64c.63-.31 1.25-.62 1.85-.93 11.42-5.86 21.86-13.32 31.13-22.2h116.53c16.72 0 30.33-13.61 30.33-30.33v-545.34c0-16.72-13.61-30.33-30.33-30.33zm-596.49 115.55h487.64v30h-487.64zm0 100h487.64v30h-487.64zm129.23 260.88c-3.53 0-7.2-.63-10.94-2.14-7.16-2.87-11.79-8.05-15.17-11.82-1.49-1.66-3.03-3.38-4.07-4.08-.35-.23-1.33-.46-2.62-.16-1.29.31-2.06.96-2.27 1.33-.45.79-.98 2.37-1.49 3.9-.76 2.27-1.62 4.84-3 7.59-5.29 10.59-15.77 16.55-26.07 14.85-10.01-1.65-15.29-9.33-18.12-13.45-.5-.73-.97-1.41-1.35-1.91-2.4-3.12-8.4-4.11-11.68-1.92-3.27 2.19-4.65 8.11-2.68 11.52l-25.97 15.02c-9.83-16.99-4.34-40.56 11.97-51.48 15.38-10.28 37.47-7.38 49.97 6.01.62-1.57 1.36-3.23 2.31-4.91 4.42-7.8 12.23-13.54 21.42-15.73 9.2-2.19 18.75-.6 26.22 4.38 4.21 2.81 7.3 6.25 9.78 9.03 1.23 1.37 3.07 3.43 3.93 3.95.62-.05 3.84-.66 11.48-7.58l20.16 22.22c-4.65 4.21-16.96 15.38-31.81 15.38zm60.77-130.88h-190v-30h190zm300.68 169.74c-.02.55-.05 1.1-.09 1.65-.13 2.13-.33 4.24-.6 6.35-.07.6-.15 1.19-.24 1.79-.46 3.2-1.07 6.36-1.82 9.48-.37 1.52-.77 3.03-1.2 4.53-.92 3.12-1.97 6.19-3.17 9.2-.59 1.47-1.21 2.92-1.86 4.37-.67 1.47-1.37 2.93-2.11 4.37-.65 1.27-1.33 2.53-2.04 3.78-.09.15-.17.3-.26.45-.4.69-.8 1.38-1.22 2.07-3.74 6.18-8.17 12.01-13.24 17.37-8.03 8.5-17.35 15.5-27.77 20.84-1.66.86-3.44 1.71-5.31 2.54-13.05 5.76-26.96 8.68-41.33 8.68-14.39 0-28.29-2.92-41.35-8.7-1.85-.81-3.63-1.67-5.36-2.57-10.37-5.31-19.68-12.31-27.69-20.8-18.04-19.06-27.98-44.04-27.98-70.31 0-1.73.04-3.45.13-5.16.02-.34.03-.67.06-1 .03-.56.07-1.12.11-1.67.08-1.11.18-2.22.3-3.32.06-.55.12-1.1.19-1.65.02-.08.02-.15.03-.22.09-.72.19-1.44.3-2.15.08-.59.18-1.18.28-1.76.02-.13.04-.25.06-.38.1-.67.22-1.34.36-2.01.01-.01.01-.03.01-.05v-.01c.11-.65.24-1.29.39-1.93.11-.57.23-1.13.36-1.69.18-.76.36-1.52.55-2.27.16-.67.33-1.33.52-1.99.18-.66.36-1.32.56-1.97.19-.64.39-1.27.58-1.91.01-.03.02-.05.03-.07.2-.64.42-1.28.63-1.92.19-.54.38-1.08.57-1.62.28-.8.58-1.58.88-2.36.23-.58.46-1.16.7-1.74 0-.02.01-.04.02-.05.18-.45.36-.89.56-1.34.21-.5.42-.99.65-1.48.2-.47.41-.93.63-1.4.11-.25.23-.49.35-.73.2-.43.41-.87.62-1.3.07-.14.14-.27.2-.4.28-.56.56-1.11.85-1.66.23-.46.47-.91.71-1.35.18-.33.36-.67.55-1 .3-.54.6-1.08.91-1.61s.63-1.07.95-1.6c.28-.47.56-.93.86-1.4.13-.21.26-.42.39-.62.33-.52.67-1.05 1.02-1.57.39-.59.79-1.18 1.19-1.76.81-1.17 1.64-2.32 2.51-3.46.37-.49.75-.99 1.13-1.47.94-1.2 1.91-2.38 2.91-3.54.46-.54.94-1.08 1.42-1.62 1.44-1.61 2.94-3.18 4.49-4.71 16.18-15.94 36.67-25.85 58.82-28.64.01.01.02 0 .03 0 .84-.11 1.68-.21 2.53-.29h.04c.86-.1 1.72-.17 2.58-.23.79-.06 1.57-.12 2.36-.15 1.82-.1 3.65-.15 5.5-.15h.01c.5 0 1.01 0 1.51.01.16 0 .31 0 .47.01.52.01 1.03.02 1.55.04.33.01.66.02.98.04.61.02 1.21.06 1.81.1.24.01.47.02.7.05.59.03 1.18.07 1.77.13.29.02.58.05.87.08.58.05 1.16.11 1.73.18.23.02.46.04.68.07.76.09 1.52.19 2.27.3.84.11 1.68.24 2.52.39 1.67.27 3.32.59 4.96.95.15.03.31.07.46.11 1.49.32 2.96.68 4.42 1.09.63.17 1.26.35 1.88.53.63.18 1.25.37 1.87.57.09.02.19.05.28.09.36.1.73.22 1.09.34 2.47.81 4.9 1.71 7.28 2.7.55.23 1.1.46 1.65.7.57.25 1.13.49 1.68.75.5.23 1 .46 1.49.7 1.57.74 3.12 1.53 4.65 2.35.46.25.91.5 1.36.76.56.31 1.11.63 1.66.95.38.22.76.45 1.14.68.72.43 1.43.87 2.13 1.32.54.34 1.07.68 1.6 1.04 1.18.78 2.34 1.58 3.48 2.41.81.59 1.61 1.18 2.4 1.8 3.17 2.43 6.19 5.05 9.04 7.83.43.41.85.83 1.26 1.25.5.5.98 1 1.46 1.5.4.41.79.83 1.17 1.25.41.43.81.87 1.2 1.32.05.06.1.12.15.17.4.45.79.9 1.18 1.36.42.48.83.97 1.23 1.46.41.49.8.98 1.19 1.48.8.99 1.57 2.01 2.32 3.03.37.51.75 1.03 1.11 1.55.75 1.04 1.46 2.1 2.15 3.16.35.54.7 1.07 1.03 1.61 2.12 3.39 4.05 6.9 5.76 10.54.21.43.41.86.6 1.29.25.53.48 1.05.71 1.58.46 1.05.9 2.1 1.32 3.17.13.35.27.69.4 1.04.17.44.34.88.5 1.33.23.61.45 1.23.66 1.86.19.54.38 1.09.55 1.64.05.14.1.28.14.42.15.45.29.91.42 1.36.29.92.56 1.84.81 2.78.17.6.33 1.2.48 1.8.16.6.31 1.21.45 1.82.27 1.12.51 2.26.74 3.4.06.32.13.64.19.97.06.32.12.64.18.97.07.41.15.82.21 1.23.03.19.07.38.09.57.12.71.23 1.42.33 2.13.19 1.31.35 2.64.48 3.97.35 3.39.52 6.82.52 10.3 0 1.64-.04 3.28-.12 4.91z"/><path d="m706.61 651.03c0 27.57-22.44 50-50.01 50s-50-22.43-50-50c0-27.58 22.43-50.01 50-50.01s50.01 22.43 50.01 50.01z"/></g></svg>
