<svg width="55" height="55" viewBox="0 0 55 55" fill="none" xmlns="http://www.w3.org/2000/svg">
<path fill-rule="evenodd" clip-rule="evenodd" d="M27.1219 11.5957C24.8287 11.5957 22.587 12.2757 20.6803 13.5497C18.7736 14.8238 17.2875 16.6346 16.4099 18.7532C15.5324 20.8719 15.3028 23.2032 15.7501 25.4523C16.1975 27.7014 17.3018 29.7674 18.9233 31.3889C20.5449 33.0104 22.6108 34.1147 24.8599 34.5621C27.1091 35.0095 29.4404 34.7799 31.559 33.9023C33.6776 33.0247 35.4885 31.5386 36.7625 29.6319C38.0365 27.7252 38.7165 25.4835 38.7165 23.1903C38.7165 20.1152 37.495 17.1661 35.3205 14.9917C33.1461 12.8173 30.197 11.5957 27.1219 11.5957ZM23.3079 17.7659C23.8204 17.7659 24.312 17.9695 24.6744 18.3319C25.0368 18.6943 25.2404 19.1858 25.2404 19.6984C25.2404 20.2109 25.0368 20.7024 24.6744 21.0648C24.312 21.4272 23.8204 21.6308 23.3079 21.6308C22.7954 21.6308 22.3039 21.4272 21.9415 21.0648C21.5791 20.7024 21.3755 20.2109 21.3755 19.6984C21.3755 19.1858 21.5791 18.6943 21.9415 18.3319C22.3039 17.9695 22.7954 17.7659 23.3079 17.7659ZM31.2072 28.1231C30.1344 29.2022 28.6774 29.8118 27.1558 29.8182C25.6318 29.8182 24.1702 29.2128 23.0925 28.1351C22.0148 27.0574 21.4094 25.5958 21.4094 24.0718H32.9192C32.911 25.593 32.3017 27.0493 31.2241 28.1231H31.2072ZM30.9698 21.6308C30.5876 21.6308 30.214 21.5174 29.8962 21.3051C29.5785 21.0928 29.3308 20.791 29.1845 20.4379C29.0383 20.0848 29 19.6962 29.0745 19.3214C29.1491 18.9465 29.3332 18.6022 29.6034 18.3319C29.8737 18.0617 30.218 17.8776 30.5928 17.8031C30.9677 17.7285 31.3562 17.7668 31.7094 17.913C32.0625 18.0593 32.3643 18.307 32.5766 18.6248C32.7889 18.9425 32.9023 19.3162 32.9023 19.6984C32.9023 20.2079 32.701 20.6969 32.3423 21.0588C31.9835 21.4207 31.4964 21.6263 30.9868 21.6308H30.9698Z" fill="#586094"/>
<path fill-rule="evenodd" clip-rule="evenodd" d="M51.9044 2.2548C51.1879 1.53813 50.3368 0.970042 49.4001 0.583151C48.4635 0.19626 47.4596 -0.00181442 46.4461 0.000297419H7.79753C6.77675 -0.00865708 5.76432 0.184668 4.81866 0.569112C3.87301 0.953556 3.01287 1.5215 2.2879 2.24017C1.56293 2.95883 0.987496 3.81398 0.594808 4.75624C0.20212 5.6985 -3.92691e-05 6.70921 5.72154e-09 7.73002V38.6659C-3.92691e-05 39.6867 0.20212 40.6974 0.594808 41.6397C0.987496 42.5819 1.56293 43.4371 2.2879 44.1557C3.01287 44.8744 3.87301 45.4423 4.81866 45.8268C5.76432 46.2112 6.77675 46.4045 7.79753 46.3956H9.72996V52.3115C9.73257 52.6634 9.83202 53.0077 10.0174 53.3067C10.2028 53.6057 10.467 53.8479 10.7809 54.0067C11.0984 54.1701 11.455 54.2424 11.8111 54.2154C12.1672 54.1885 12.5088 54.0634 12.7981 53.8541L23.2739 46.3786H46.4461C48.5023 46.3877 50.478 45.5807 51.9398 44.1347C53.4017 42.6888 54.2302 40.722 54.2437 38.6659V7.73002C54.2332 6.70836 54.0212 5.69881 53.6198 4.75925C53.2184 3.81969 52.6354 2.96861 51.9044 2.2548ZM27.1218 38.6659C24.0642 38.6659 21.0753 37.7592 18.533 36.0605C15.9907 34.3618 14.0093 31.9473 12.8392 29.1225C11.6691 26.2977 11.3629 23.1893 11.9594 20.1904C12.5559 17.1916 14.0283 14.437 16.1904 12.2749C18.3524 10.1129 21.107 8.64053 24.1058 8.04402C27.1047 7.44752 30.2131 7.75366 33.0379 8.92375C35.8628 10.0938 38.2772 12.0753 39.9759 14.6176C41.6746 17.1599 42.5813 20.1488 42.5813 23.2064C42.5813 27.3065 40.9525 31.2387 38.0533 34.1379C35.1541 37.0371 31.2219 38.6659 27.1218 38.6659Z" fill="#586094"/>
</svg>
