<svg enable-background="new 0 0 32 32" height="512" viewBox="0 0 32 32" width="512" xmlns="http://www.w3.org/2000/svg"><g id="Layer_22"><path d="m16 7.831c-4.51 0-8.167 3.656-8.167 8.167s3.657 8.166 8.167 8.166 8.167-3.656 8.167-8.167-3.657-8.166-8.167-8.166zm2.865 8.851-2.181 2.181c-.378.378-.99.378-1.368 0l-2.181-2.181c-.378-.378-.378-.99 0-1.368l2.181-2.181c.378-.378.99-.378 1.368 0l2.181 2.181c.378.377.378.99 0 1.368z"/><g><path d="m11.868 3.57c2.641-.893 5.615-.896 8.271.003.963.316 2.146.96 2.999 1.492-.392 1.05-.172 2.277.672 3.121 1.153 1.154 3.024 1.154 4.177 0 1.154-1.153 1.154-3.024 0-4.177-1.014-1.014-2.58-1.135-3.728-.367-.986-.629-2.381-1.395-3.552-1.778-3.013-1.018-6.403-1.018-9.416 0-.471.159-.724.67-.564 1.141.159.47.668.724 1.141.565z"/><path d="m20.132 28.426c-2.641.893-5.615.896-8.271-.003-.803-.263-2.04-.891-3.008-1.462.407-1.057.189-2.299-.663-3.152-1.154-1.153-3.024-1.153-4.177 0-1.154 1.154-1.154 3.024 0 4.177 1.004 1.004 2.55 1.132 3.695.388 1.086.659 2.562 1.421 3.585 1.756 1.506.509 3.09.768 4.708.768s3.202-.259 4.708-.768c.471-.159.724-.67.564-1.141-.16-.47-.669-.723-1.141-.563z"/><path d="m30.9 15.998c0-1.619-.258-3.203-.768-4.708-.16-.472-.67-.725-1.141-.564-.471.159-.723.67-.564 1.141.446 1.319.673 2.71.673 4.132s-.227 2.813-.676 4.14c-.285.871-.86 2.09-1.405 3.027-1.068-.437-2.341-.223-3.208.644-1.154 1.154-1.154 3.024 0 4.177 1.153 1.154 3.024 1.154 4.177 0 .986-.986 1.122-2.491.423-3.629.657-1.076 1.372-2.583 1.721-3.651.51-1.506.768-3.09.768-4.709z"/><path d="m3.573 20.13c-.447-1.32-.673-2.71-.673-4.132s.227-2.813.676-4.14c.266-.814.893-2.053 1.457-3.009 1.058.41 2.302.192 3.156-.662 1.153-1.153 1.153-3.024 0-4.177-1.154-1.154-3.024-1.154-4.177 0-1.003 1.002-1.132 2.546-.391 3.69-.652 1.073-1.414 2.552-1.753 3.59-.51 1.505-.768 3.089-.768 4.708s.258 3.203.768 4.708c.127.376.477.612.853.612.096 0 .193-.016.289-.048.469-.159.722-.67.563-1.14z"/></g></g></svg>
