<svg height="512" viewBox="0 0 64 64" width="512" xmlns="http://www.w3.org/2000/svg"><g id="v"><g><path d="m47 30c-5.731 0-10.798 2.859-13.879 7.216-1.685-.113-3.397-.178-5.121-.197v-9.019h10.981c-.006.321-.006.644-.018.962-.021.552.409 1.017.961 1.037.513.043 1.017-.408 1.037-.961.013-.343.013-.692.02-1.038h10.981c-.012.308-.012.62-.035.923-.042.551.37 1.032.92 1.074.565.036 1.032-.37 1.074-.92.053-.683.079-1.382.079-2.077 0-14.888-12.112-27-27-27s-27 12.112-27 27 12.112 27 27 27c.695 0 1.395-.026 2.077-.079.55-.042.962-.523.92-1.074s-.516-.957-1.074-.92c-.303.023-.615.023-.923.035v-12.943c1.323.014 2.634.06 3.936.131-1.23 2.351-1.936 5.018-1.936 7.85 0 9.374 7.626 17 17 17s17-7.626 17-17-7.626-17-17-17zm-21 7.016c-3.375.036-6.674.251-9.843.639-.684-2.982-1.077-6.252-1.142-9.655h10.984v9.016zm2-34.918c3.909.709 7.351 5.519 9.303 12.297-2.997.356-6.113.555-9.303.589zm-2 0v12.886c-3.19-.034-6.306-.234-9.303-.589 1.952-6.778 5.394-11.588 9.303-12.297zm0 14.886v9.016h-10.987c.068-3.419.483-6.688 1.175-9.651 3.159.386 6.448.6 9.813.635zm-12.987 9.016h-10.988c.17-4.282 1.42-8.29 3.487-11.759 2.703.77 5.602 1.382 8.645 1.833-.68 3.04-1.081 6.386-1.145 9.926zm.003 2c.065 3.481.465 6.838 1.162 9.923-3.05.451-5.956 1.065-8.665 1.836-2.068-3.469-3.318-7.477-3.487-11.759zm14.984-11.016c3.365-.036 6.653-.25 9.813-.635.691 2.963 1.106 6.232 1.175 9.651h-10.987v-9.016zm11.843-.91c3.043-.451 5.942-1.063 8.645-1.833 2.068 3.469 3.318 7.477 3.487 11.759h-10.987c-.064-3.54-.464-6.886-1.145-9.926zm7.492-3.59c-2.505.684-5.176 1.233-7.975 1.641-1.35-4.901-3.461-8.851-6.048-11.316 5.733 1.497 10.666 4.985 14.023 9.675zm-26.646-9.675c-2.587 2.465-4.698 6.415-6.048 11.316-2.799-.408-5.471-.957-7.975-1.641 3.357-4.69 8.29-8.179 14.023-9.675zm-14.024 38.707c2.511-.685 5.189-1.235 7.995-1.644 1.08 3.894 2.653 7.259 4.624 9.749.197.249.49.379.785.379.217 0 .437-.07.62-.216.433-.343.506-.973.163-1.405-1.77-2.234-3.191-5.258-4.192-8.77 3.008-.358 6.136-.559 9.339-.593v12.959c-7.964-.315-14.977-4.372-19.335-10.458zm40.335 20.484c-8.271 0-15-6.729-15-15s6.729-15 15-15 15 6.729 15 15-6.729 15-15 15z"/><path d="m47 34c-7.168 0-13 5.832-13 13s5.832 13 13 13 13-5.832 13-13-5.832-13-13-13zm0 24c-6.065 0-11-4.935-11-11s4.935-11 11-11 11 4.935 11 11-4.935 11-11 11z"/><path d="m47.8 38.4c-.377-.504-1.223-.504-1.6 0l-6 8c-.267.355-.267.844 0 1.199l6 8c.188.252.485.4.8.4s.611-.148.8-.4l6-8c.267-.355.267-.844 0-1.199zm-.8 2.267 4 5.333h-8zm0 12.666-4-5.333h8z"/></g></g></svg>