<svg height="512" viewBox="0 0 64 64" width="512" xmlns="http://www.w3.org/2000/svg"><g id="i"><g><path d="m48.624 46.019c-.466-2.329-2.528-4.019-4.903-4.019h-23.442c-2.375 0-4.437 1.69-4.903 4.019l-2.878 14.393c-.177.885.049 1.792.622 2.49s1.417 1.098 2.32 1.098h3.561c.315 0 .611-.148.8-.4l2.7-3.6h19l2.7 3.6c.188.252.485.4.8.4h3.561c.902 0 1.748-.4 2.32-1.098s.799-1.605.622-2.49l-2.878-14.393zm-12.904-2.019-.5 2h-6.438l-.5-2zm13.614 17.634c-.19.233-.472.366-.773.366h-3.061l-2.7-3.6c-.188-.252-.485-.4-.8-.4h-20c-.315 0-.611.148-.8.4l-2.7 3.6h-3.061c-.301 0-.583-.133-.773-.366-.191-.232-.267-.535-.208-.83l2.878-14.393c.28-1.397 1.517-2.412 2.942-2.412h5.94l.811 3.243c.111.445.511.757.97.757h8c.459 0 .859-.312.97-.757l.811-3.243h5.94c1.425 0 2.662 1.014 2.942 2.412l2.878 14.393c.059.294-.017.597-.208.83z"/><path d="m25 50h-2v-2c0-.552-.448-1-1-1s-1 .448-1 1v2h-2c-.552 0-1 .448-1 1s.448 1 1 1h2v2c0 .552.448 1 1 1s1-.448 1-1v-2h2c.552 0 1-.448 1-1s-.448-1-1-1z"/><path d="m41 47h2v2h-2z"/><path d="m38 50h2v2h-2z"/><path d="m44 50h2v2h-2z"/><path d="m41 53h2v2h-2z"/><path d="m32 50c-1.654 0-3 1.346-3 3s1.346 3 3 3 3-1.346 3-3-1.346-3-3-3zm0 4c-.551 0-1-.449-1-1s.449-1 1-1 1 .449 1 1-.449 1-1 1z"/><path d="m32 0c-17.944 0-32 5.271-32 12v29c0 3.568 3.696 6.664 10.689 8.951.102.033.207.049.311.049.208 0 .414-.065.587-.19.259-.188.413-.489.413-.81v-15.346c5.544-1.708 12.599-2.654 20-2.654s14.456.945 20 2.654v15.346c0 .32.154.622.413.81.173.125.379.19.587.19.104 0 .209-.016.311-.049 6.993-2.287 10.689-5.382 10.689-8.951v-29c0-6.729-14.056-12-32-12zm-22 47.595c-5.105-1.873-8-4.245-8-6.595v-24.705c1.665 1.671 4.352 3.163 8 4.423v26.876zm19.477-26.595h5.046l-2.523 6.308zm32.523 20c0 2.351-2.895 4.722-8 6.595v-26.876c3.648-1.261 6.335-2.752 8-4.423v24.705zm-9.311-21.951c-.411.135-.689.518-.689.951v11.567c-5.259-1.542-11.729-2.431-18.532-2.543l3.461-8.653c.123-.308.085-.657-.101-.932s-.496-.439-.828-.439h-8c-.332 0-.642.165-.828.439s-.224.624-.101.932l3.461 8.653c-6.804.112-13.273 1.001-18.532 2.543v-11.567c0-.433-.278-.816-.689-.951-5.917-1.935-9.311-4.504-9.311-7.049 0-4.829 12.055-10 30-10s30 5.171 30 10c0 2.545-3.394 5.114-9.311 7.049z"/><path d="m36 15c0-2.206-1.794-4-4-4s-4 1.794-4 4 1.794 4 4 4 4-1.794 4-4zm-4 2c-1.103 0-2-.897-2-2s.897-2 2-2 2 .897 2 2-.897 2-2 2z"/><path d="m49.8 6.4c-.377-.504-1.223-.504-1.6 0l-3 4c-.267.355-.267.845 0 1.2l3 4c.188.252.485.4.8.4s.611-.148.8-.4l3-4c.267-.355.267-.845 0-1.2zm-.8 6.934-1.75-2.333 1.75-2.333 1.75 2.333z"/><path d="m19.8 16.4c-.377-.504-1.223-.504-1.6 0l-3 4c-.267.355-.267.845 0 1.2l3 4c.188.252.485.4.8.4s.611-.148.8-.4l3-4c.267-.355.267-.845 0-1.2zm-.8 6.934-1.75-2.333 1.75-2.333 1.75 2.333z"/><path d="m47 23v-4c0-.552-.448-1-1-1h-4c-.552 0-1 .448-1 1v4c0 .552.448 1 1 1h4c.552 0 1-.448 1-1zm-2-1h-2v-2h2z"/><path d="m18 12v-4c0-.552-.448-1-1-1h-4c-.552 0-1 .448-1 1v4c0 .552.448 1 1 1h4c.552 0 1-.448 1-1zm-2-1h-2v-2h2z"/><path d="m39 6h2v2h-2z"/><path d="m46 26h2v2h-2z"/><path d="m14 26h2v2h-2z"/><path d="m27 4h2v2h-2z"/><path d="m22 13h2v2h-2z"/></g></g></svg>