<svg id="Layer_5" enable-background="new 0 0 61.707 60" height="512" viewBox="0 0 61.707 60" width="512" xmlns="http://www.w3.org/2000/svg"><g><path d="m33.707 32c0-1.103-.897-2-2-2h-4v4h4c1.103 0 2-.897 2-2z"/><path d="m37.707 60h4v-19.757l-4 4z"/><path d="m31.707 46h4v14h-4z"/><path d="m13.763 30c.224 3.84 1.722 7.433 4.254 10.276l1.415-1.415c-2.105-2.404-3.45-5.478-3.674-8.861z"/><path d="m25.707 46h4v14h-4z"/><path d="m19.432 19.139-1.414-1.414c-2.464 2.77-4.03 6.341-4.261 10.275h2c.225-3.383 1.57-6.457 3.675-8.861z"/><path d="m29.707 12.051c-3.933.23-7.505 1.797-10.275 4.261l1.414 1.414c2.404-2.105 5.478-3.45 8.861-3.674z"/><path d="m41.982 16.311c-2.77-2.464-6.341-4.03-10.275-4.261v2c3.383.225 6.457 1.569 8.861 3.674z"/><path d="m33.707 26c0-1.103-.897-2-2-2h-4v4h4c1.103 0 2-.897 2-2z"/><path d="m1.707 60h4v-5.757l-4 4z"/><path d="m7.707 60h4v-11.757l-4 4z"/><path d="m13.707 46.243v13.757h4v-14h-3.757z"/><path d="m19.707 46h4v14h-4z"/><path d="m49.707 42.243v17.343h4v-17.343l-2 2z"/><path d="m57.707 38.243-2 2v19.757h4v-20h-2z"/><path d="m43.707 38.243v21.757h4v-19.757l-3-3z"/><path d="m52.707 30v2h5.586l-6.586 6.586-7-7-10.414 10.414h-22l-12.293 12.293 1.414 1.414 11.707-11.707h22l9.586-9.586 7 7 8-8v4.586h2v-8z"/><path d="m23.81 40h9.654l10.209-10.209c.016-.263.034-.526.034-.791 0-7.168-5.832-13-13-13s-13 5.832-13 13c0 4.634 2.444 8.698 6.103 11zm1.897-20h2v2h2v-2h2v2c2.206 0 4 1.794 4 4 0 1.2-.542 2.266-1.382 3 .84.734 1.382 1.8 1.382 3 0 2.206-1.794 4-4 4v2h-2v-2h-2v2h-2z"/><path d="m47.656 28c-.23-3.933-1.797-7.505-4.261-10.275l-1.414 1.414c2.105 2.404 3.45 5.478 3.674 8.861z"/><circle cx="8.707" cy="9" r="3"/><circle cx="30.707" cy="3" r="3"/><circle cx="54.707" cy="10" r="3"/><circle cx="4.707" cy="39" r="3"/><path d="m4.707 20h2v2h-2z"/><path d="m4.707 24h2v2h-2z"/><path d="m6.707 22h2v2h-2z"/><path d="m2.707 22h2v2h-2z"/><path d="m53.707 18h2v2h-2z"/><path d="m53.707 22h2v2h-2z"/><path d="m55.707 20h2v2h-2z"/><path d="m43.707 5h2v2h-2z"/><path d="m43.707 9h2v2h-2z"/><path d="m45.707 7h2v2h-2z"/><path d="m41.707 7h2v2h-2z"/><path d="m17.707 3h2v2h-2z"/><path d="m17.707 7h2v2h-2z"/><path d="m19.707 5h2v2h-2z"/><path d="m15.707 5h2v2h-2z"/><path d="m51.707 20h2v2h-2z"/></g></svg>
