<svg id="Layer_1" enable-background="new 0 0 512 512" viewBox="0 0 512 512" xmlns="http://www.w3.org/2000/svg"><path d="m473.741 1h-435.482c-19.76 0-35.836 16.075-35.836 35.835v438.329c0 19.76 16.076 35.836 35.836 35.836h435.482c19.76 0 35.836-16.076 35.836-35.836v-438.329c0-19.76-16.076-35.835-35.836-35.835zm-435.482 15h435.482c11.489 0 20.836 9.347 20.836 20.835v36.169h-477.154v-36.169c0-11.489 9.347-20.835 20.836-20.835zm435.482 480h-435.482c-11.489 0-20.836-9.347-20.836-20.836v-387.159h477.154v387.16c0 11.489-9.347 20.835-20.836 20.835zm-207.09-451.498c0-4.142 3.357-7.5 7.5-7.5h174.92c4.143 0 7.5 3.358 7.5 7.5s-3.357 7.5-7.5 7.5h-174.92c-4.142 0-7.5-3.358-7.5-7.5zm-214.351 0c0-4.142 3.357-7.5 7.5-7.5h15.469c4.143 0 7.5 3.358 7.5 7.5s-3.357 7.5-7.5 7.5h-15.469c-4.143 0-7.5-3.358-7.5-7.5zm52.009 0c0-4.142 3.357-7.5 7.5-7.5h15.469c4.143 0 7.5 3.358 7.5 7.5s-3.357 7.5-7.5 7.5h-15.469c-4.143 0-7.5-3.358-7.5-7.5zm52.008 0c0-4.142 3.357-7.5 7.5-7.5h15.469c4.143 0 7.5 3.358 7.5 7.5s-3.357 7.5-7.5 7.5h-15.469c-4.142 0-7.5-3.358-7.5-7.5zm305.136 316.705c0-4.143-3.357-7.5-7.5-7.5h-232.461l-53.971-41.454c-2.407-1.848-5.69-2.065-8.318-.547s-4.083 4.469-3.686 7.478l14.396 108.947c.401 3.033 2.604 5.519 5.565 6.281 2.966.759 6.092-.351 7.907-2.813l12.155-16.487 17.822 30.868h-39.739c-4.143 0-7.5 3.357-7.5 7.5s3.357 7.5 7.5 7.5h48.43c1.423 2.193 3.815 3.423 6.282 3.423 1.272 0 2.562-.324 3.743-1.006l4.187-2.417h217.688c4.143 0 7.5-3.357 7.5-7.5s-3.357-7.5-7.5-7.5h-196.298c.469-1.884.195-3.877-.777-5.561l-14.767-25.576h211.842c4.143 0 7.5-3.357 7.5-7.5s-3.357-7.5-7.5-7.5h-220.502l-2.866-4.964 20.356-2.284c3.04-.341 5.568-2.494 6.389-5.44.821-2.947-.23-6.098-2.656-7.961l-13.653-10.486h212.932c4.143-.001 7.5-3.358 7.5-7.501zm-243.93 20.043c-2.515.282-4.718 1.813-5.858 4.071-1.141 2.259-1.066 4.94.199 7.132l28.273 48.971-9.063 5.232-28.273-48.971c-1.265-2.191-3.55-3.597-6.076-3.738-.141-.008-.28-.012-.42-.012-2.373 0-4.617 1.126-6.036 3.05l-7.921 10.743-9.585-72.535 58.025 44.568zm243.93-158.452c0 4.142-3.357 7.5-7.5 7.5h-238.777c-4.143 0-7.5-3.358-7.5-7.5s3.357-7.5 7.5-7.5h238.777c4.143 0 7.5 3.358 7.5 7.5zm0-92.273c0 4.142-3.357 7.5-7.5 7.5h-238.777c-4.143 0-7.5-3.358-7.5-7.5s3.357-7.5 7.5-7.5h238.777c4.143 0 7.5 3.358 7.5 7.5zm0 184.546c0 4.143-3.357 7.5-7.5 7.5h-238.777c-4.143 0-7.5-3.357-7.5-7.5s3.357-7.5 7.5-7.5h238.777c4.143 0 7.5 3.357 7.5 7.5zm0-46.137c0 4.142-3.357 7.5-7.5 7.5h-280.329c-4.143 0-7.5-3.358-7.5-7.5s3.357-7.5 7.5-7.5h280.329c4.143 0 7.5 3.358 7.5 7.5zm0-92.273c0 4.142-3.357 7.5-7.5 7.5h-280.329c-4.143 0-7.5-3.358-7.5-7.5s3.357-7.5 7.5-7.5h280.329c4.143 0 7.5 3.358 7.5 7.5zm-346.362-60.693h-48.145c-7.474 0-13.554 6.08-13.554 13.553v48.145c0 7.473 6.08 13.553 13.554 13.553h48.145c7.473 0 13.553-6.08 13.553-13.553v-48.145c0-7.473-6.081-13.553-13.553-13.553zm-1.447 60.251h-45.251v-45.251h45.251zm1.447 32.021h-48.145c-7.474 0-13.554 6.08-13.554 13.553v48.145c0 7.473 6.08 13.553 13.554 13.553h48.145c7.473 0 13.553-6.08 13.553-13.553v-48.145c0-7.472-6.081-13.553-13.553-13.553zm-1.447 60.251h-45.251v-45.251h45.251zm1.447 32.023h-48.145c-7.474 0-13.554 6.08-13.554 13.553v48.145c0 7.474 6.08 13.554 13.554 13.554h48.145c7.473 0 13.553-6.08 13.553-13.554v-48.145c0-7.473-6.081-13.553-13.553-13.553zm-1.447 60.251h-45.251v-45.251h45.251zm1.447 32.02h-48.145c-7.474 0-13.554 6.08-13.554 13.554v48.145c0 7.473 6.08 13.553 13.554 13.553h48.145c7.473 0 13.553-6.08 13.553-13.553v-48.145c0-7.474-6.081-13.554-13.553-13.554zm-1.447 60.251h-45.251v-45.251h45.251z"/></svg>