<svg height="512" viewBox="0 0 64 64" width="512" xmlns="http://www.w3.org/2000/svg"><g id="e"><g><path d="m17 0c-9.374 0-17 7.626-17 17s7.626 17 17 17 17-7.626 17-17-7.626-17-17-17zm1 10.978c2.119-.051 4.188-.256 6.133-.618.47 1.73.764 3.636.839 5.64h-6.972zm0-2v-6.841c2.249.554 4.237 2.934 5.514 6.3-1.751.312-3.608.492-5.514.541zm-2-6.841v6.841c-1.907-.048-3.763-.229-5.514-.541 1.277-3.366 3.265-5.746 5.514-6.3zm0 8.841v5.022h-6.972c.075-2.004.368-3.911.839-5.64 1.946.362 4.015.567 6.133.618zm-8.971 5.022h-4.978c.175-2.636 1.025-5.088 2.392-7.179 1.074.427 2.224.798 3.442 1.104-.49 1.861-.785 3.907-.856 6.076zm0 2c.071 2.169.367 4.215.856 6.076-1.219.305-2.368.677-3.442 1.104-1.367-2.092-2.217-4.543-2.392-7.179h4.978zm1.999 0h6.972v5.022c-2.119.051-4.188.256-6.133.618-.47-1.73-.764-3.636-.839-5.64zm6.972 7.022v6.841c-2.249-.554-4.237-2.934-5.514-6.3 1.751-.312 3.608-.492 5.514-.541zm2 6.841v-6.841c1.907.048 3.763.229 5.514.541-1.277 3.366-3.265 5.746-5.514 6.3zm0-8.841v-5.022h6.972c-.075 2.004-.368 3.911-.839 5.64-1.946-.362-4.015-.567-6.133-.618zm8.971-5.022h4.978c-.175 2.636-1.025 5.088-2.392 7.179-1.074-.427-2.224-.798-3.442-1.104.49-1.861.785-3.907.856-6.076zm0-2c-.071-2.169-.367-4.215-.856-6.076 1.219-.305 2.368-.677 3.442-1.104 1.367 2.092 2.217 4.543 2.392 7.179h-4.978zm1.333-8.829c-.875.323-1.809.603-2.784.844-.679-1.884-1.566-3.511-2.615-4.799 2.089.898 3.926 2.264 5.399 3.956zm-17.209-3.956c-1.049 1.288-1.936 2.915-2.615 4.799-.975-.24-1.908-.521-2.784-.844 1.473-1.692 3.31-3.057 5.399-3.956zm-5.399 23.614c.875-.323 1.809-.603 2.784-.844.679 1.884 1.566 3.511 2.615 4.799-2.089-.898-3.926-2.264-5.399-3.956zm17.209 3.956c1.049-1.288 1.936-2.915 2.615-4.799.975.24 1.908.521 2.784.844-1.473 1.692-3.31 3.058-5.399 3.956z"/><path d="m47 30c-9.374 0-17 7.626-17 17s7.626 17 17 17 17-7.626 17-17-7.626-17-17-17zm10.414 25 1.293-1.293c.268-.268.361-.664.241-1.023l-.758-2.275 1.882-1.254 1.63.815c-.477 2.366-1.519 4.527-2.969 6.35l-1.319-1.319zm3.033-7.895c-.322-.16-.704-.136-1.002.062l-3 2c-.375.25-.536.72-.394 1.148l.804 2.414-1.562 1.563c-.391.391-.391 1.023 0 1.414l2.092 2.092c-2.013 1.937-4.557 3.324-7.397 3.901l2.6-1.891c.435-.315.542-.917.244-1.363l-2-3c-.186-.278-.498-.445-.832-.445h-4c-.155 0-.309.036-.447.105l-3.21 1.605-1.511-2.266c-.073-.11-.167-.204-.277-.277l-2.555-1.703v-3.114l3.781-4.726c.243-.304.288-.723.113-1.072l-1.74-3.481 1.678-2.517c.159-.239.208-.534.135-.812-.074-.277-.263-.509-.52-.638l-2.929-1.465c2.2-1.514 4.823-2.443 7.652-2.599l-.983 1.376c-.242.338-.249.791-.019 1.136l2 3c.186.278.498.445.832.445h2.181l.839 4.196c.094.467.504.804.98.804h3.586l1.707 1.707c.193.194.449.293.707.293.203 0 .406-.062.581-.186l2.811-2.008c.389 1.333.608 2.737.608 4.194 0 .29-.027.574-.044.86l-1.509-.755zm.225-6.243-2.564 1.832-1.401-1.401c-.188-.188-.441-.293-.707-.293h-3.181l-.839-4.196c-.094-.467-.504-.804-.98-.804h-2.465l-1.32-1.98 1.381-1.932c5.395.573 9.934 4.021 12.077 8.775zm-28.672 6.138c0-4.336 1.86-8.236 4.811-10.977l2.729 1.364-1.372 2.058c-.199.298-.223.681-.062 1.002l1.714 3.428-3.601 4.5c-.142.177-.219.397-.219.625v4c0 .334.167.646.445.832l2.834 1.889 1.889 2.833c.28.419.829.564 1.279.34l3.789-1.895h3.229l1.171 1.756-4.407 3.205c-7.912-.405-14.229-6.95-14.229-14.961z"/><path d="m9.562 43.037c.483.98 1.035 1.937 1.641 2.841l1.662-1.111c-.557-.833-1.064-1.712-1.51-2.615z"/><path d="m9.43 36.448-1.963.383c.209 1.069.492 2.137.843 3.174l1.895-.641c-.322-.953-.583-1.934-.774-2.916z"/><path d="m18.125 52.799c.91.608 1.866 1.16 2.843 1.641l.885-1.794c-.898-.443-1.779-.951-2.616-1.51l-1.111 1.663z"/><path d="m24.005 55.693c1.033.349 2.102.632 3.174.842l.385-1.963c-.986-.193-1.969-.453-2.92-.774z"/><path d="m14.704 47.162-1.502 1.32c.721.821 1.502 1.601 2.32 2.319l1.318-1.503c-.753-.662-1.472-1.38-2.137-2.136z"/><path d="m54.437 20.963c-.483-.98-1.035-1.937-1.641-2.841l-1.662 1.111c.557.833 1.064 1.712 1.51 2.615z"/><path d="m53.796 24.636c.322.953.583 1.934.774 2.916l1.963-.383c-.209-1.069-.492-2.137-.843-3.174l-1.895.641z"/><path d="m45.875 11.201c-.91-.608-1.866-1.16-2.843-1.641l-.885 1.794c.898.443 1.779.951 2.616 1.51l1.111-1.663z"/><path d="m39.995 8.307c-1.033-.349-2.102-.632-3.174-.842l-.385 1.963c.986.193 1.969.453 2.92.774z"/><path d="m49.296 16.838 1.502-1.32c-.721-.821-1.502-1.601-2.32-2.319l-1.318 1.503c.753.662 1.472 1.38 2.137 2.136z"/><path d="m56.168 15.554c.186.279.498.446.832.446s.647-.167.832-.446l4-6.012c.224-.337.224-.775 0-1.112l-4-6.012c-.371-.558-1.293-.558-1.664 0l-4 6.012c-.224.337-.224.775 0 1.112zm.832-10.773 2.798 4.206-2.798 4.206-2.798-4.206z"/><path d="m11.707 52.293c-.391-.391-1.023-.391-1.414 0l-2.293 2.293-2.293-2.293c-.391-.391-1.023-.391-1.414 0s-.391 1.023 0 1.414l2.293 2.293-2.293 2.293c-.391.391-.391 1.023 0 1.414.195.195.451.293.707.293s.512-.098.707-.293l2.293-2.293 2.293 2.293c.195.195.451.293.707.293s.512-.098.707-.293c.391-.391.391-1.023 0-1.414l-2.293-2.293 2.293-2.293c.391-.391.391-1.023 0-1.414z"/></g></g></svg>