<svg enable-background="new 0 0 1024 1024" viewBox="0 0 1024 1024" xmlns="http://www.w3.org/2000/svg"><g><path d="m104.5 102.7h467.5v169h-467.5z"/><g><path d="m557.1 102.7v147.9 21l15-15c-15.5 0-31 0-46.5 0-37.2 0-74.4 0-111.6 0-45 0-90 0-135.1 0-38.9 0-77.9 0-116.8 0-18.8 0-38-1-56.8 0-.3 0-.5 0-.8 0l15 15c0-49.3 0-98.6 0-147.9 0-7 0-14 0-21-5 5-10 10-15 15h46.5 111.6 135.1 116.8c18.9 0 37.9.6 56.8 0h.8c7.8 0 15.4-6.9 15-15s-6.6-15-15-15c-15.5 0-31 0-46.5 0-37.2 0-74.4 0-111.6 0-45 0-90 0-135.1 0-38.9 0-77.9 0-116.8 0-18.9 0-37.9-.6-56.8 0-.3 0-.5 0-.8 0-8.1 0-15 6.9-15 15v147.9 21c0 8.1 6.9 15 15 15h46.5 111.6 135.1 116.8c18.9 0 37.9.6 56.8 0h.8c8.1 0 15-6.9 15-15 0-49.3 0-98.6 0-147.9 0-7 0-14 0-21 0-7.8-6.9-15.4-15-15-8.2.4-15 6.6-15 15z"/></g></g><g><path d="m451.9 427.5h467.6v168.9h-467.6z"/><g><path d="m919.5 581.5c-15.5 0-31 0-46.5 0-37.2 0-74.4 0-111.6 0-45 0-90 0-135.1 0-38.9 0-77.9 0-116.8 0-18.8 0-38-1-56.8 0-.3 0-.5 0-.8 0l15 15c0-49.3 0-98.6 0-147.9 0-7 0-14 0-21-5 5-10 10-15 15h46.5 111.6 135.1 116.8c18.8 0 38 1 56.8 0h.8c-5-5-10-10-15-15v147.9 21c0 7.8 6.9 15.4 15 15s15-6.6 15-15c0-49.3 0-98.6 0-147.9 0-7 0-14 0-21 0-8.1-6.9-15-15-15-15.5 0-31 0-46.5 0-37.2 0-74.4 0-111.6 0-45 0-90 0-135.1 0-38.9 0-77.9 0-116.8 0-18.9 0-37.9-.6-56.8 0-.3 0-.5 0-.8 0-8.1 0-15 6.9-15 15v147.9 21c0 8.1 6.9 15 15 15h46.5 111.6 135.1 116.8c18.9 0 37.9.6 56.8 0h.8c7.8 0 15.4-6.9 15-15-.4-8.2-6.6-15-15-15z"/></g></g><g><path d="m451.9 752.3h467.6v168.9h-467.6z"/><g><path d="m919.5 906.3c-15.5 0-31 0-46.5 0-37.2 0-74.4 0-111.6 0-45 0-90 0-135.1 0-38.9 0-77.9 0-116.8 0-18.8 0-38-1-56.8 0-.3 0-.5 0-.8 0l15 15c0-49.3 0-98.6 0-147.9 0-7 0-14 0-21-5 5-10 10-15 15h46.5 111.6 135.1 116.8c18.8 0 38 1 56.8 0h.8c-5-5-10-10-15-15v147.9 21c0 7.8 6.9 15.4 15 15s15-6.6 15-15c0-49.3 0-98.6 0-147.9 0-7 0-14 0-21 0-8.1-6.9-15-15-15-15.5 0-31 0-46.5 0-37.2 0-74.4 0-111.6 0-45 0-90 0-135.1 0-38.9 0-77.9 0-116.8 0-18.9 0-37.9-.6-56.8 0-.3 0-.5 0-.8 0-8.1 0-15 6.9-15 15v147.9 21c0 8.1 6.9 15 15 15h46.5 111.6 135.1 116.8c18.9 0 37.9.6 56.8 0h.8c7.8 0 15.4-6.9 15-15-.4-8.2-6.6-15-15-15z"/></g></g><g><g><path d="m213.2 271.7v56.5 134.6 163.7 140.7c0 22.9-.5 45.8 0 68.7v.9c0 10.8 9.2 20 20 20h74 117.5 27.2c10.5 0 20.5-9.2 20-20s-8.8-20-20-20c-24.7 0-49.4 0-74 0-39.2 0-78.3 0-117.5 0-9.1 0-18.1 0-27.2 0 6.7 6.7 13.3 13.3 20 20 0-18.8 0-37.7 0-56.5 0-44.9 0-89.7 0-134.6 0-54.6 0-109.1 0-163.7 0-46.9 0-93.8 0-140.7 0-22.9.5-45.8 0-68.7 0-.3 0-.6 0-.9 0-10.5-9.2-20.5-20-20s-20 8.8-20 20z"/></g></g><g><g><path d="m233.2 532h74 117.5 27.2c10.5 0 20.5-9.2 20-20s-8.8-20-20-20c-24.7 0-49.4 0-74 0-39.2 0-78.3 0-117.5 0-9.1 0-18.1 0-27.2 0-10.5 0-20.5 9.2-20 20s8.8 20 20 20z"/></g></g></svg>
