<svg width="60" height="60" viewBox="0 0 60 60" fill="none" xmlns="http://www.w3.org/2000/svg">
<path d="M14.5781 37.1328H18.3458V40.9005H14.5781V37.1328Z" fill="black"/>
<path fill-rule="evenodd" clip-rule="evenodd" d="M53.7162 5.49566C53.0216 4.79783 52.1961 4.24389 51.287 3.86558C50.3779 3.48727 49.4032 3.29202 48.4185 3.29102H10.8079C8.81378 3.29102 6.90133 4.08318 5.49128 5.49323C4.08122 6.90329 3.28906 8.81573 3.28906 10.8098V48.4205C3.28906 50.4146 4.08122 52.327 5.49128 53.7371C6.90133 55.1471 8.81378 55.9393 10.8079 55.9393H48.4185C50.41 55.9306 52.3174 55.1357 53.7256 53.7275C55.1337 52.3193 55.9287 50.4119 55.9373 48.4205V10.8098C55.9281 8.81459 55.1296 6.90407 53.7162 5.49566ZM31.4888 22.0963H42.7753V25.864H31.4888V22.0963ZM22.0944 40.9016C22.0944 41.9009 21.6974 42.8592 20.9909 43.5658C20.2843 44.2723 19.326 44.6693 18.3267 44.6693H14.5755C13.5763 44.6693 12.618 44.2723 11.9114 43.5658C11.2048 42.8592 10.8079 41.9009 10.8079 40.9016V37.134C10.8079 36.1347 11.2048 35.1764 11.9114 34.4699C12.618 33.7633 13.5763 33.3663 14.5755 33.3663H18.3432C19.3424 33.3663 20.3007 33.7633 21.0073 34.4699C21.7139 35.1764 22.1108 36.1347 22.1108 37.134L22.0944 40.9016ZM17.1586 24.449C16.8013 24.7955 16.3236 24.9901 15.8259 24.992C15.3289 24.9867 14.8525 24.7926 14.4933 24.449L10.7585 20.6156L13.4239 17.9338L15.8424 20.3853L20.153 16.0582L22.8183 18.7235L17.1586 24.449ZM42.7753 44.6528H31.4888V40.9016H42.7753V44.6528ZM48.4185 37.134H31.4888V33.3828H48.4185V37.134ZM48.4185 18.3287H31.4888V14.5775H48.4185V18.3287Z" fill="black"/>
</svg>
