<svg height="512" viewBox="0 0 28 28" width="512" xmlns="http://www.w3.org/2000/svg"><g id="Layer_2" data-name="Layer 2"><path d="m26.427 12.593-3.301-5.793a1.484 1.484 0 0 0 .374-.965 1.5 1.5 0 0 0 -2.9-.524h-4.665a2 2 0 0 0 -.811-1.157 2.047 2.047 0 0 0 -2.245 0 2 2 0 0 0 -.814 1.159h-4.665a1.495 1.495 0 1 0 -2.529 1.494l-3.3 5.786a.485.485 0 0 0 -.073.244 4.5 4.5 0 0 0 9 0 .485.485 0 0 0 -.073-.244l-3.299-5.793a1.57 1.57 0 0 0 .281-.489h4.664a2 2 0 0 0 1.929 1.502 1.943 1.943 0 0 0 1.276-.465 1.989 1.989 0 0 0 .653-1.035h4.663a1.572 1.572 0 0 0 .279.494l-3.3 5.786a.485.485 0 0 0 -.073.244 4.5 4.5 0 1 0 9 0 .485.485 0 0 0 -.071-.244zm-17.289-.256h-6.276l2.878-5.037a1.507 1.507 0 0 0 .26.037 1.493 1.493 0 0 0 .26-.037zm9.724 0 2.878-5.037a.97.97 0 0 0 .52 0l2.878 5.035z"/><path d="m9.5 23.478h9a2.225 2.225 0 0 0 -2.223-2.214h-4.553a2.225 2.225 0 0 0 -2.224 2.214z"/><path d="m18.532 24.579h-9.064a1.97 1.97 0 0 0 -1.968 1.968h13a1.97 1.97 0 0 0 -1.968-1.968z"/><path d="m14 8.813a2.946 2.946 0 0 1 -1.516-.413l-.422 11.863h3.876l-.422-11.863a2.985 2.985 0 0 1 -1.516.413z"/><path d="m15.414 3.173v-.212a1.461 1.461 0 0 0 -2.922 0v.266a3 3 0 0 1 2.922-.054z"/></g></svg>
