<svg height="512pt" viewBox="0 0 512 512.04659" width="512pt" xmlns="http://www.w3.org/2000/svg"><path d="m460.824219 51.246094h-109.058594c-4.8125-5.40625-11.703125-8.511719-18.941406-8.53125h-26.308594c-4.144531-24.65625-25.492187-42.714844-50.492187-42.714844-25.003907 0-46.347657 18.058594-50.492188 42.714844h-26.308594c-7.238281.019531-14.128906 3.125-18.945312 8.53125h-109.054688c-28.265625.027344-51.1718748 22.933594-51.1992185 51.199218v358.402344c.0273437 28.265625 22.9335935 51.171875 51.1992185 51.199219h409.601563c28.265625-.027344 51.171875-22.933594 51.199219-51.199219v-358.402344c-.027344-28.265624-22.933594-51.171874-51.199219-51.199218zm0 332.800781h-59.734375c-9.425782 0-17.066406 7.640625-17.066406 17.066406v59.734375h-324.265626c-4.714843 0-8.535156-3.820312-8.535156-8.535156v-341.332031c0-4.714844 3.820313-8.535157 8.535156-8.535157h93.867188c0 14.140626 11.460938 25.601563 25.597656 25.601563h153.601563c14.136719 0 25.597656-11.460937 25.597656-25.601563h93.867187c4.714844 0 8.535157 3.820313 8.535157 8.535157zm-12.066407 17.066406-47.667968 47.667969v-47.667969zm-269.535156-341.332031h34.132813c4.714843 0 8.535156-3.820312 8.535156-8.535156 0-18.851563 15.28125-34.132813 34.132813-34.132813 18.851562 0 34.132812 15.28125 34.132812 34.132813 0 4.714844 3.820312 8.535156 8.535156 8.535156h34.132813c4.710937 0 8.53125 3.820312 8.53125 8.53125v34.132812c0 4.714844-3.820313 8.535157-8.53125 8.535157h-153.601563c-4.710937 0-8.53125-3.820313-8.53125-8.535157v-34.132812c0-4.710938 3.820313-8.53125 8.53125-8.53125zm315.734375 401.066406c0 18.851563-15.28125 34.132813-34.132812 34.132813h-409.601563c-18.851562 0-34.132812-15.28125-34.132812-34.132813v-358.402344c0-18.851562 15.28125-34.132812 34.132812-34.132812h102.402344v17.066406h-93.867188c-14.140624 0-25.601562 11.460938-25.601562 25.601563v341.332031c0 14.140625 11.460938 25.601562 25.601562 25.601562h325.726563c3.523437-.007812 7.011719-.75 10.238281-2.175781.167969-.082031.335938-.167969.496094-.265625 2.734375-1.238281 5.226562-2.953125 7.363281-5.058594l66.796875-66.800781c2.132813-2.144531 3.863282-4.648437 5.121094-7.398437.070312-.152344.171875-.28125.230469-.445313 1.433593-3.222656 2.175781-6.710937 2.183593-10.238281v-274.550781c0-14.140625-11.460937-25.601563-25.597656-25.601563h-93.894531v-17.066406h102.402344c18.851562 0 34.132812 15.28125 34.132812 34.132812zm0 0"/><path d="m213.355469 93.914062h85.335937c4.710938 0 8.53125-3.820312 8.53125-8.535156 0-4.710937-3.820312-8.53125-8.53125-8.53125h-85.335937c-4.710938 0-8.53125 3.820313-8.53125 8.53125 0 4.714844 3.820312 8.535156 8.53125 8.535156zm0 0"/><path d="m426.691406 153.648438h-136.535156c-4.710938 0-8.53125 3.820312-8.53125 8.53125 0 4.714843 3.820312 8.535156 8.53125 8.535156h136.535156c4.710938 0 8.53125-3.820313 8.53125-8.535156 0-4.710938-3.820312-8.53125-8.53125-8.53125zm0 0"/><path d="m426.691406 187.78125h-136.535156c-4.710938 0-8.53125 3.820312-8.53125 8.53125 0 4.714844 3.820312 8.535156 8.53125 8.535156h136.535156c4.710938 0 8.53125-3.820312 8.53125-8.535156 0-4.710938-3.820312-8.53125-8.53125-8.53125zm0 0"/><path d="m426.691406 221.914062h-136.535156c-4.710938 0-8.53125 3.820313-8.53125 8.53125 0 4.714844 3.820312 8.535157 8.53125 8.535157h136.535156c4.710938 0 8.53125-3.820313 8.53125-8.535157 0-4.710937-3.820312-8.53125-8.53125-8.53125zm0 0"/><path d="m426.691406 256.046875h-136.535156c-4.710938 0-8.53125 3.820313-8.53125 8.53125 0 4.714844 3.820312 8.535156 8.53125 8.535156h136.535156c4.710938 0 8.53125-3.820312 8.53125-8.535156 0-4.710937-3.820312-8.53125-8.53125-8.53125zm0 0"/><path d="m426.691406 290.179688h-136.535156c-4.710938 0-8.53125 3.820312-8.53125 8.535156 0 4.710937 3.820312 8.53125 8.53125 8.53125h136.535156c4.710938 0 8.53125-3.820313 8.53125-8.53125 0-4.714844-3.820312-8.535156-8.53125-8.535156zm0 0"/><path d="m426.691406 349.914062h-341.335937c-4.710938 0-8.53125 3.820313-8.53125 8.53125 0 4.714844 3.820312 8.535157 8.53125 8.535157h341.335937c4.710938 0 8.53125-3.820313 8.53125-8.535157 0-4.710937-3.820312-8.53125-8.53125-8.53125zm0 0"/><path d="m341.355469 384.046875h-256c-4.710938 0-8.53125 3.820313-8.53125 8.53125 0 4.714844 3.820312 8.535156 8.53125 8.535156h256c4.714843 0 8.535156-3.820312 8.535156-8.535156 0-4.710937-3.820313-8.53125-8.535156-8.53125zm0 0"/><path d="m341.355469 418.179688h-256c-4.710938 0-8.53125 3.820312-8.53125 8.535156 0 4.710937 3.820312 8.53125 8.53125 8.53125h256c4.714843 0 8.535156-3.820313 8.535156-8.53125 0-4.714844-3.820313-8.535156-8.535156-8.535156zm0 0"/><path d="m118.796875 306.5625c.566406.570312 1.210937 1.054688 1.914063 1.433594 29.769531 21.753906 70.191406 21.753906 99.957031 0 .707031-.378906 1.347656-.863282 1.914062-1.433594 29.03125-22.238281 40.664063-60.503906 28.925781-95.136719-11.742187-34.636719-44.246093-57.9375-80.816406-57.9375-36.570312 0-69.078125 23.300781-80.816406 57.9375-11.742188 34.632813-.109375 72.898438 28.921875 95.136719zm12.5625-11.886719c-2.164063-4.003906-3.3125-8.476562-3.335937-13.027343.96875-14.265626 10.625-26.457032 24.285156-30.671876 3.074218 1.808594 6.390625 3.164063 9.847656 4.039063v18.097656c0 4.710938 3.820312 8.535157 8.535156 8.535157 4.710938 0 8.53125-3.824219 8.53125-8.535157v-18.097656c3.457032-.875 6.773438-2.230469 9.847656-4.039063 13.664063 4.214844 23.316407 16.40625 24.285157 30.671876-.023438 4.550781-1.167969 9.023437-3.335938 13.027343-23.542969 16.761719-55.117187 16.761719-78.660156 0zm39.332031-123.960937c14.113282 0 25.597656 15.308594 25.597656 34.132812 0 18.824219-11.484374 34.132813-25.597656 34.132813-14.117187 0-25.601562-15.308594-25.601562-34.132813 0-18.824218 11.484375-34.132812 25.601562-34.132812zm68.265625 68.265625c-.015625 12.074219-3.257812 23.925781-9.386719 34.328125-3.324218-15.015625-13.191406-27.757813-26.898437-34.730469 7.039063-9.832031 10.78125-21.640625 10.683594-33.730469.011719-7.644531-1.453125-15.21875-4.316407-22.308594 18.703126 12.699219 29.90625 33.835938 29.917969 56.441407zm-106.617187-56.441407c-2.863282 7.089844-4.328125 14.664063-4.316406 22.308594-.105469 12.085938 3.621093 23.894532 10.648437 33.730469-13.707031 6.972656-23.574219 19.714844-26.894531 34.730469-18.160156-30.945313-9.15625-70.671875 20.5625-90.769532zm0 0"/></svg>