<svg enable-background="new 0 0 1024 1024" viewBox="0 0 1024 1024" xmlns="http://www.w3.org/2000/svg"><g><path d="m651.6 69.2c-.3-.1-.5-.2-.8-.3-.9-.5-1.8-.9-2.8-1.2-11.8-3.9-23.6-7.8-35.5-11.6-23.3-7.6-48.4-8.7-71.8-1.1-14 4.5-25.5 12.7-38.5 19.1-1.9 1-.5.3-2.5 1.1-1.6.6-3.1 1.2-4.7 1.7-3.4 1.1-6.9 2.1-10.4 2.8-1.6.3-3.3.6-4.9.9-.2 0-.4.1-.6.1h-.1c-.1 0-.1 0-.2 0-.6.1-1.2.1-1.7.2-3.6.3-7.2.5-10.8.4-3.2 0-6.4-.2-9.5-.6-.2-.1-2.6-.5-3.1-.5-1.9-.4-3.8-.8-5.8-1.3-1.2-.3-2.5-.6-3.7-1-6.4-1.7-12.7-3.4-19.1-5-11.7-3.1-23.5-6.7-35.3-9.3-9.4-2-18.8 1.2-24.1 9.5-4.4 6.9-3.8 14.6-.7 21.7.8 1.8 1.6 3.6 2.4 5.4 11 25 21.9 50 32.9 75 9.5 21.5 18.8 43.1 28.4 64.6-.2-.4-.3-.9-.5-1.4 2.5 6.2 7.3 11 14.5 11h138.3c7.2 0 12-4.8 14.5-11-1 2.4-1.3 3.4-1.4 3.5.2-.3 1.5-3.4 2-4.5 1.8-3.9 3.6-7.8 5.5-11.7 5.9-12.6 11.8-25.3 17.8-37.9 12.2-26.1 24.4-52.1 36.6-78.2 1.5-3.2 3-6.4 4.5-9.6.7-1.6 1.6-3.2 2.1-4.8 2.9-9.7-1.2-21.6-11-26z"/><path d="m889.5 824c-10-5.5-20.5-8.4-31.5-9.5-1.8-18.1-3.6-36.2-5.5-54.4-4.2-41.4-8.3-82.9-12.5-124.3-2.5-24.4-4.4-48.9-7.4-73.2-7.7-63.1-33.1-122.3-74-171-39.6-47.2-93.2-82.4-152.1-100.5-7.1-2.2-14.4-4.1-21.6-5.8 0 0 0 0-.1 0-1.2-.3-2.6-.5-3.9-.5h-127.2c-8.1 0-14.5.3-22.5 2.4-19.9 5.1-39.2 12.3-57.8 21-36.2 17-69.3 41.2-96.6 70.3-28.3 30.1-50.4 65.2-65.7 103.5-12.1 30.4-18.3 61.9-21.5 94.4-4.2 41.8-8.4 83.5-12.6 125.3-3.8 37.7-7.6 75.3-11.4 113-9.8 1-19.3 3.4-28.6 8-14.2 7-26.5 19-34 32.9-17.5 32.3-10.8 74.7 17.5 98.8 15.6 13.2 34.5 19.9 54.9 19.9h644.3c10.7 0 21.4.2 32 0 34.1-.8 64-23.2 74.8-55.4 12.1-35.8-4.3-76.8-37-94.9zm-291.2-57.7c-12.7 11.5-28.6 20-45.6 22.7-7 1.1-13.9 1.4-20.8 1.5v38c0 11.2-9.2 19.5-20 20s-20-9.5-20-20v-37.6c-10.1-.2-20.1-1.2-29.3-4.1-34.5-10.7-59-42.2-59.4-78.5-.1-11.2 9.3-19.5 20-20 10.9-.5 19.9 9.5 20 20 0 1.8.2 3.6.3 5.4.1.6.2 1.3.4 2 .1.6 1.2 4.7 2 7.3 0 .1.1.2.1.3.3.6.5 1.2.8 1.8.4.8.8 1.5 1.2 2.3.7 1.3 1.5 2.6 2.3 3.9.4.6.9 1.2 1.3 1.9.9 1.1 1.8 2.2 2.8 3.2 1.3 1.4 2.8 2.8 4.2 4 0 0 .3.3.8.7.1 0 .2.1.3.2 3 1.9 5.9 3.8 9 5.3.9.4 4.1 1 1.3.6.3.1.5.1.7.2 1.5.5 3 1 4.5 1.4 1.8.5 3.5.9 5.3 1.2.1 0 .4.1.8.2h.7c3.2.2 6.3.2 9.4.2 6.1 0 12.2.1 18.3.2.7-.1 1.5-.2 2.2-.2 1.4-.1 2.7.1 4 .3 8.9.1 17.8 0 26.7-.6h.3.1c.6-.1 1.3-.1 1.8-.2 1.8-.3 3.6-.8 5.3-1.3s3.4-1 5.1-1.6c0 0 .5-.1 1-.3.1-.1.2-.1.4-.2 3.3-1.7 6.6-3.4 9.7-5.6.5-.3.9-.6 1.3-1 1.2-1.2 2.5-2.2 3.7-3.3 1.4-1.4 2.8-2.8 4-4.2.1-.1.5-.5.8-.9 0 0 0-.1.1-.1 1.8-2.7 3.6-5.4 5.1-8.3.1-.1.5-.9.9-1.7.1-.3.2-.5.3-.7 0 0 0 0 0-.1s.1-.1.1-.2c.5-1.3 1-2.7 1.4-4.1.5-1.7.9-3.4 1.3-5.1.1-.5.2-1.1.3-1.6.1-.6.3-1.8.4-2.1.1-3.5-.3-9.4-.3-10.1v-.1c-.2-.8-.3-1.6-.5-2.5-.4-1.8-.8-3.6-1.4-5.3-.1-.3-.5-1.9-.9-3-.1-.2-.3-.5-.5-.9-.9-1.9-1.8-3.7-2.9-5.5-1-1.8-2.2-3.5-3.4-5.2 0 0-.1-.1-.1-.2s0-.1-.1-.1c-.4-.4-.8-.9-1-1.1-1.5-1.7-3.1-3.4-4.8-5-.7-.7-1.5-1.3-2.3-2s-1.2-1-1.2-1.2c.2.1 1.5 1.2 1.7 1.4-.5-1.2-4-2.7-5-3.4-1.7-1.1-3.5-2.1-5.3-3-.3-.1-1.4-.6-2.1-1-.4-.1-.8-.3-1-.4-2-.7-4-1.3-6-1.8-1.8-.5-3.6-.8-5.4-1.2-.5-.1-.8-.2-1-.2-.6 0-1.3 0-1.6 0-16.8-1.1-34-.2-50.8-.2-31.5 0-60.2-13.9-78.2-40-22.2-32.2-17.4-75.8 7.7-104.7 12.5-14.4 30.9-24.9 49.6-28.2 7.6-1.4 15-1.7 22.5-1.8v-36.8c0-11.2 9.2-19.5 20-20s20 9.5 20 20v36.4c10.1.2 20.1 1.2 29.4 4.1 34.5 10.7 59 42.1 59.4 78.5.1 11.2-9.3 19.5-20 20-10.9.5-19.9-9.5-20-20 0-1.8-.1-3.6-.3-5.4-.1-.7-.2-1.3-.4-2-.1-.6-1.1-4.7-1.9-7.3 0-.1-.1-.2-.1-.3-.3-.6-.5-1.2-.8-1.8-.4-.8-.8-1.5-1.2-2.3-.7-1.3-1.5-2.6-2.3-3.9-.4-.6-.9-1.2-1.3-1.9-.9-1.1-1.8-2.1-2.8-3.2-1.3-1.4-2.8-2.8-4.2-4 0 0-.3-.3-.8-.7-.1-.1-.2-.1-.3-.2-3-1.9-5.9-3.8-9-5.4-.9-.4-4-1-1.3-.6-.3 0-.5-.1-.7-.2-1.5-.5-3-1-4.5-1.4-1.8-.5-3.5-.9-5.3-1.2-.1 0-.4-.1-.9-.2-.2 0-.4 0-.7 0-3.2-.2-6.3-.2-9.4-.2h-20.5c-.5 0-.9 0-1.4 0h-19.7c-1 0-2 0-3 0-1.7 0-5.1-.4-7.2.1.8-.1 1.2 0-.6.4-1 .2-2.1.4-3.1.6-2 .5-4.1 1-6.1 1.7-1 .3-2 .7-2.9 1-3.9 1.3.3-.3.5-.3-1.3-.1-4.3 2.1-5.5 2.8-2 1.1-3.9 2.3-5.8 3.6-.2.1-.6.5-1.1.8-.3.3-.7.6-.8.7-1.5 1.3-3 2.7-4.4 4.2-.7.7-1.4 1.5-2.1 2.3-.1.1-.2.2-.4.4-.4.5-1.6 2.1-1.7 2.2-.6.9-1.1 1.7-1.7 2.6-1.1 1.8-2.1 3.6-3 5.4-.2.4-.5.9-.7 1.3-.1.3-.2.6-.3 1.1-.5 1.8-1.1 3.5-1.6 5.2-.5 1.8-1 3.7-1.3 5.6 0 1-.1 3.3-.1 4.1 0 1.9 0 3.8.1 5.7 0 0 .1 1 .1 1.8.7 3.6 1.5 7.1 2.7 10.5.2.5.4.9.5 1.4.7 1.3 1.3 2.6 2 3.9 1 1.9 2.2 3.7 3.4 5.5.1.1.3.4.5.8.1.1.2.2.2.3 2.2 2.4 4.4 4.8 6.8 7l1.1 1.1c.1.1.3.2.4.3 1.4 1 2.9 2 4.4 2.9s3 1.8 4.6 2.6c.8.4 1.6.8 2.4 1.2s1 .6.9.6c1.4.4 3.1.8 3.7 1 1.7.5 3.5 1 5.3 1.4.7.2 1.4.2 2.2.4-.2-.2.5-.2 2.2.4.6 0 1.3.1 1.9.2 16.6.9 33.5.1 50.1.1 34.4 0 68.8 17.6 83.8 49.7 16 33.9 9.4 75.2-18.8 100.9z"/></g></svg>
