<svg enable-background="new 0 0 1024 1024" viewBox="0 0 1024 1024" xmlns="http://www.w3.org/2000/svg"><g><path d="m248.13 125h96.95v774h-96.95c-17.01 0-30.85-13.84-30.85-30.85v-55.09h-30.57v-40h30.57v-73.4h-30.57v-40h30.57v-73.4h-30.57v-40h30.57v-73.4h-30.57v-40h30.57v-73.4h-30.57v-40h30.57v-73.4h-30.57v-40h30.57v-50.21c0-17.01 13.84-30.85 30.85-30.85z"/><path d="m774.4 125h-399.31v774h399.31c34.67 0 62.88-28.21 62.88-62.88v-648.24c0-34.67-28.2-62.88-62.88-62.88zm-144.22 344.39h-140v-30h140zm82-102h-222v-30h222z"/></g></svg>
