<svg width="62" height="62" viewBox="0 0 62 62" fill="none" xmlns="http://www.w3.org/2000/svg">
<path d="M32.6725 35.8066L31.3887 36.4485C30.7449 36.7703 29.9998 36.824 29.3165 36.5979C28.6332 36.3717 28.0674 35.8841 27.7427 35.2417C27.7204 35.2095 27.6887 35.1849 27.652 35.1711C27.6153 35.1573 27.5753 35.1551 27.5373 35.1647C27.165 35.3059 26.0994 36.012 25.6758 35.935V43.6378H48.7842V17.9746H25.6758V22.9558C26.0047 22.6895 26.3882 22.4988 26.799 22.3971C27.2098 22.2954 27.6379 22.2852 28.0531 22.3673C28.4683 22.4493 28.8604 22.6216 29.2016 22.8719C29.5429 23.1223 29.8249 23.4445 30.0279 23.8159C30.0502 23.8481 30.0818 23.8728 30.1185 23.8865C30.1552 23.9003 30.1953 23.9025 30.2333 23.8929C30.8928 23.4619 31.6452 23.1936 32.4286 23.1098H35.9462C36.2867 23.1098 36.6132 23.2451 36.854 23.4858C37.0947 23.7266 37.23 24.0531 37.23 24.3936C37.23 24.7341 37.0947 25.0606 36.854 25.3014C36.6132 25.5422 36.2867 25.6774 35.9462 25.6774H32.4286C31.745 26.1096 30.9726 26.3817 30.1691 26.4734C29.6652 26.4721 29.1716 26.331 28.7432 26.0658C28.3148 25.8007 27.9685 25.4217 27.7427 24.9713C27.7344 24.9527 27.7224 24.9359 27.7076 24.9219C27.6927 24.9079 27.6752 24.897 27.6561 24.8898C27.637 24.8827 27.6166 24.8794 27.5963 24.8801C27.5759 24.8809 27.5558 24.8857 27.5373 24.8943L26.2535 25.5362C26.0761 25.6318 25.8772 25.6804 25.6758 25.6774V33.239C26.0047 32.9727 26.3882 32.782 26.799 32.6803C27.2098 32.5786 27.6379 32.5685 28.0531 32.6505C28.4683 32.7326 28.8604 32.9049 29.2016 33.1552C29.5429 33.4055 29.8249 33.7278 30.0279 34.0991C30.0502 34.1314 30.0818 34.156 30.1185 34.1698C30.1552 34.1835 30.1953 34.1858 30.2333 34.1762L31.5171 33.5343C31.8119 33.4264 32.136 33.4304 32.4281 33.5453C32.7203 33.6603 32.9601 33.8782 33.1024 34.1581C33.2447 34.4379 33.2795 34.7602 33.2003 35.0639C33.1211 35.3677 32.9333 35.6319 32.6725 35.8066ZM41.0814 23.1098H43.649C43.9895 23.1098 44.316 23.2451 44.5568 23.4858C44.7975 23.7266 44.9328 24.0531 44.9328 24.3936C44.9328 24.7341 44.7975 25.0606 44.5568 25.3014C44.316 25.5422 43.9895 25.6774 43.649 25.6774H41.0814C40.7409 25.6774 40.4144 25.5422 40.1736 25.3014C39.9328 25.0606 39.7976 24.7341 39.7976 24.3936C39.7976 24.0531 39.9328 23.7266 40.1736 23.4858C40.4144 23.2451 40.7409 23.1098 41.0814 23.1098ZM35.9462 33.3802H36.9219L37.9361 32.8795C38.2545 32.7185 38.6017 32.6219 38.9576 32.5954C39.3135 32.5689 39.6711 32.613 40.0099 32.7251C40.3487 32.8372 40.662 33.0152 40.9318 33.2488C41.2016 33.4824 41.4226 33.767 41.5821 34.0863C41.6012 34.1218 41.6326 34.1491 41.6703 34.1633C41.7081 34.1775 41.7497 34.1775 41.7875 34.1633C42.4495 33.7375 43.2007 33.4695 43.9828 33.3802H46.2166C46.5571 33.3802 46.8836 33.5155 47.1244 33.7562C47.3651 33.997 47.5004 34.3235 47.5004 34.664C47.5004 35.0045 47.3651 35.331 47.1244 35.5718C46.8836 35.8126 46.5571 35.9478 46.2166 35.9478H43.9828L42.9429 36.4485C42.2991 36.7703 41.554 36.824 40.8707 36.5979C40.1874 36.3717 39.6216 35.8841 39.2969 35.2417C39.2777 35.2062 39.2464 35.1789 39.2086 35.1647C39.1709 35.1506 39.1293 35.1505 39.0915 35.1647C38.7064 35.3316 37.6665 35.9992 37.23 35.9478H35.9462C35.6057 35.9478 35.2792 35.8126 35.0384 35.5718C34.7976 35.331 34.6624 35.0045 34.6624 34.664C34.6624 34.3235 34.7976 33.997 35.0384 33.7562C35.2792 33.5155 35.6057 33.3802 35.9462 33.3802Z" fill="black"/>
<path d="M23.1072 43.6499V15.4062H2.56641V46.2175H23.1072V43.6499Z" fill="black"/>
<path d="M23.1072 8.98693C23.1072 8.64644 22.972 8.3199 22.7312 8.07914C22.4904 7.83838 22.1639 7.70312 21.8234 7.70312H3.85021C3.50972 7.70312 3.18318 7.83838 2.94242 8.07914C2.70166 8.3199 2.56641 8.64644 2.56641 8.98693V12.8383H23.1072V8.98693Z" fill="black"/>
<path d="M21.8234 53.9204C22.1639 53.9204 22.4904 53.7851 22.7312 53.5443C22.972 53.3036 23.1072 52.977 23.1072 52.6366V48.7852H2.56641V52.6366C2.56641 52.977 2.70166 53.3036 2.94242 53.5443C3.18318 53.7851 3.50972 53.9204 3.85021 53.9204H21.8234Z" fill="black"/>
<path d="M56.487 8.98633H25.6758V15.4053H50.068C50.4085 15.4053 50.735 15.5406 50.9758 15.7813C51.2165 16.0221 51.3518 16.3486 51.3518 16.6891V44.9327C51.3518 45.2732 51.2165 45.5998 50.9758 45.8405C50.735 46.0813 50.4085 46.2165 50.068 46.2165H25.6758V52.6355H56.487C56.8275 52.6355 57.154 52.5003 57.3948 52.2595C57.6355 52.0188 57.7708 51.6922 57.7708 51.3517V10.2701C57.7708 9.92964 57.6355 9.6031 57.3948 9.36234C57.154 9.12159 56.8275 8.98633 56.487 8.98633Z" fill="black"/>
<path d="M6.41797 5.13596H19.256V3.85216C19.256 3.51167 19.1207 3.18513 18.88 2.94438C18.6392 2.70362 18.3127 2.56836 17.9722 2.56836H7.70177C7.36128 2.56836 7.03474 2.70362 6.79399 2.94438C6.55323 3.18513 6.41797 3.51167 6.41797 3.85216V5.13596Z" fill="black"/>
<path d="M6.41797 57.7721C6.41797 58.1126 6.55323 58.4391 6.79399 58.6799C7.03474 58.9206 7.36128 59.0559 7.70177 59.0559H17.9722C18.3127 59.0559 18.6392 58.9206 18.88 58.6799C19.1207 58.4391 19.256 58.1126 19.256 57.7721V56.4883H6.41797V57.7721Z" fill="black"/>
</svg>
