<svg enable-background="new 0 0 1024 1024" viewBox="0 0 1024 1024" xmlns="http://www.w3.org/2000/svg"><g><path d="m693.7 756.1v112.7h-511.3c-2.3 0-4.5-.5-6.4-1.5-.1-.1-.3-.1-.4-.2s-.3-.1-.4-.2c-1.3-.7-2.4-1.5-3.5-2.6-13.8-13.8-27.6-27.6-41.4-41.4-5.7-5.7-5.7-15.5 0-21.2l28-28c6.9-6.9 14.3-17.4 24.8-17.8 3.3-.1 6.5 0 9.8 0h500.8z"/><path d="m898 794.8c0-5.4.2-10.8 0-16.1-.5-12.7-9.5-22.1-22.3-22.6-2.5-.1-5 0-7.5 0h-144.5v112.7h105.5v15.2 2.6.7c.1-.2.1-.4.1-.5-.1.5 0 2.3-.1.7 0-.1 0-.1 0-.2-.1.4-.3.8-.4 1.2.3-.4.4-.5.1.2-.4.8-.3.5-.1-.2-.2.3-.5.7-.6 1.1.3-.2.4-.2.1.2-.5.6-.4.3-.1-.2-.5.3-1.4 1.2-1.2 1.2-.6.3-1.2.5-1.1.5-.3.1-.6.2-1 .3h.1-.1.1c-.2 0-.3 0-.5 0-.6 0-1.1 0-1.7 0-4 0-8.1 0-12.2 0h-126.2c-7.9 0-15.4 6.9-15 15s6.6 15 15 15h126.3c14.2 0 28.6.7 39.3-11.1 8.3-9.2 9.2-19.8 9.3-31.3-.1.3-.2.6-.2.8 0-.2.1-.4.2-.8.4-1.5 1.3-4.8 2.8-10.3h.1c4.1 0 8.2 0 12.3-.1.7 0 1.4 0 2.1-.1 11.9-.8 20.7-9.6 21.5-21.5.1-1.3 0-2.6 0-3.9v-48.5z"/><path d="m479 130.6c-29.3-1.5-58.7-3.1-88-4.6-57-3-114-6-171-9-38.4-2-76.9-4.8-115.3-6-.6 0-1.2-.1-1.8-.1-8.1-.4-15 7.2-15 15v462.1c0 21.2-.6 42.5 0 63.7v.9c0 8.4 6.9 14.6 15 15l46.4 2.4c35.3 1.9 70.5 3.7 105.8 5.5 38.5 2 76.9 4 115.4 6.1 25.1 1.3 50.1 2.6 75.2 4 17.1.9 34.1 1.8 51.2 2.7 0-5 0-10 .1-15 0-4.9.1-9.8.1-14.8.1-6.5.1-12.9.1-19.4v-507.3c-6.2-.4-12.2-.9-18.2-1.2zm-327.1 76.9c0-7.8 6.9-15.4 15-15 4.1.2 8.1.5 12.2.7 28.4 1.6 56.8 3.1 85.2 4.7 8.1.5 15 6.6 15 15v143.9c.3 7.8-7.2 15.4-15 15-.8 0-1.7 0-2.5-.1-3.2-.2-6.5-.4-9.7-.5-28.4-1.6-56.8-3.1-85.2-4.7-8.1-.5-15-6.6-15-15zm100.5 377.9c-3.6-.2-7.1-.4-10.7-.6-24.9-1.3-49.9-2.6-74.8-3.9-8.4-.5-14.6-6.5-15-15-.3-7.8 7.2-15.4 15-15 3.6.2 7.1.4 10.7.6 24.9 1.3 49.9 2.6 74.8 3.9 8.4.5 14.6 6.5 15 15 .3 7.9-7.2 15.5-15 15zm-85.5-114.1c-8.4-.5-14.6-6.5-15-15-.3-7.8 7.2-15.5 15-15 6.1.4 12.2.7 18.3 1.1 43.2 2.6 86.4 5.1 129.5 7.7 8.4.5 14.6 6.5 15 15 .3 7.8-7.2 15.5-15 15-6.1-.4-12.2-.7-18.3-1.1-43.2-2.6-86.4-5.2-129.5-7.7zm254.7 123c-4-.3-8-.5-12-.8-27.8-1.8-55.6-3.5-83.4-5.3-8.4-.5-14.6-6.5-15-15-.3-7.8 7.2-15.5 15-15 4 .3 8 .5 12 .8 27.8 1.8 55.6 3.5 83.4 5.3 8.4.5 14.6 6.5 15 15 .3 7.8-7.2 15.5-15 15zm0-109.7c-12.3-.6-24.5-1.3-36.8-1.9-8.4-.4-14.6-6.5-15-15-.4-7.8 7.1-15.4 15-15 12.3.6 24.5 1.3 36.8 1.9 8.4.4 14.6 6.5 15 15 .3 7.9-7.2 15.5-15 15zm0-123.3c-22.8-1.3-45.7-2.6-68.5-3.9-8.4-.5-14.6-6.5-15-15-.3-7.8 7.2-15.4 15-15 22.8 1.3 45.7 2.6 68.5 3.9 8.4.5 14.6 6.5 15 15 .3 7.8-7.2 15.4-15 15zm0-105.4c-22.8-1.3-45.7-2.6-68.5-3.8-8.4-.5-14.6-6.5-15-15-.3-7.8 7.2-15.4 15-15 22.8 1.3 45.7 2.6 68.5 3.8 8.4.5 14.6 6.5 15 15 .3 7.8-7.2 15.4-15 15z"/><path d="m936.2 126.8c0-.3 0-.6 0-.9 0-4.1-1.8-8-4.8-10.9 0 0-.1-.1-.1-.1-.2-.2-.3-.3-.5-.4-2.6-2.4-5.9-3.8-9.7-3.6-20 1.1-40.1 2.1-60.1 3.2v220.1c0 8.9-7.2 14.7-15 14.8-2.5 0-5.1-.5-7.6-1.8-18-9.3-36.1-18.7-54.1-28-18.4 11.1-36.9 22.3-55.3 33.4-2.4 1.5-5 2.1-7.6 2-7.8-.1-15-6.5-15-15 0-.3 0-.7 0-1-.6-20.9 0-41.9 0-62.9v-153.5c-40.2 2.1-80.3 4.2-120.5 6.3-15.6.8-31.3 1.6-46.9 2.5-3.9.2-7.8.5-11.8.8v14.9c0 5-.1 10-.1 15-.1 8-.1 16-.1 24v502.9c5.2-.3 10.4-.8 15.5-1 9.8-.5 19.7-1 29.5-1.6 19.2-1 38.3-2 57.5-3 36.7-1.9 73.4-3.9 110.1-5.8 37.6-2 75.2-4 112.8-5.9 21.9-1.1 43.7-2.3 65.6-3.5 1.1 0 2.1-.1 3.2-.2 8.1-.4 15-6.5 15-15v-462.1c0-21.2.5-42.5 0-63.7zm-337.9 99c17-1 33.9-1.9 50.9-2.9 8.4-.5 14.7 7.3 15 15 .4 8.4-7.2 14.6-15 15-17 1-34 1.9-50.9 2.9-8.4.5-14.7-7.3-15-15-.4-8.4 7.2-14.5 15-15zm65.2 121.6c.4 8.6-7.2 14.3-15 15-16.1 1.5-32.1 3-48.2 4.5-8.4.8-14.7-7.5-15-15-.4-8.6 7.2-14.3 15-15 16.1-1.5 32.1-3 48.2-4.5 8.3-.8 14.6 7.5 15 15zm11.3 241.9c-25.5 1.7-51 3.4-76.5 5.1-8.4.5-14.7-7.3-15-15-.4-8.5 7.2-14.5 15-15 25.5-1.7 51-3.4 76.5-5.1 8.4-.5 14.7 7.3 15 15 .4 8.4-7.2 14.4-15 15zm42.2-111.8c-39.6 2.4-79.2 4.8-118.7 7.1-8.4.5-14.7-7.3-15-15-.4-8.4 7.2-14.5 15-15 5.6-.3 11.3-.7 16.9-1 39.6-2.4 79.2-4.8 118.8-7.2 8.4-.5 14.6 7.3 15 15 .4 8.4-7.2 14.5-15 15-5.7.4-11.4.7-17 1.1zm136 103.5c-4.1.2-8.3.4-12.4.7-28.9 1.5-57.8 3-86.7 4.5-8.4.4-14.6-7.2-15-15-.4-8.4 7.2-14.6 15-15 4.2-.2 8.3-.4 12.4-.7 28.9-1.5 57.8-3 86.6-4.5 8.4-.4 14.7 7.2 15 15 .5 8.4-7.1 14.6-14.9 15zm0-109.7c-14.5.8-29 1.5-43.5 2.3-8.4.4-14.6-7.2-15-15-.4-8.4 7.2-14.6 15-15 14.5-.8 29-1.5 43.5-2.3 8.4-.4 14.7 7.2 15 15 .4 8.4-7.2 14.6-15 15z"/><path d="m831.1 102.3v207.2c-11.3-5.8-22.6-11.7-33.9-17.5-2.9-1.5-6.2-3.6-9.4-4.5-6.6-1.8-11.3 1.4-16.5 4.5-10.6 6.4-21.1 12.8-31.7 19.1-1 .6-2.1 1.2-3.1 1.9v-206.8c5.7-.3 11.4-.5 17.1-.7 16.7-.7 33.3-1.4 50-2.2 7.2-.3 14.3-.6 21.5-.9 1.8-.1 3.9 0 6-.1z"/></g></svg>
