<svg id="Icons" height="512" viewBox="0 0 64 64" width="512" xmlns="http://www.w3.org/2000/svg"><path d="m26 18v2a6 6 0 0 0 12 0v-2a6 6 0 0 0 -12 0z"/><path d="m33 9v-8a1 1 0 0 0 -2 0v8a1 1 0 0 0 2 0z"/><path d="m14 15a1 1 0 0 0 1 1h8a1 1 0 0 0 0-2h-8a1 1 0 0 0 -1 1z"/><path d="m50 15a1 1 0 0 0 -1-1h-8a1 1 0 0 0 0 2h8a1 1 0 0 0 1-1z"/><path d="m42.293 4.293-6 6a1 1 0 1 0 1.414 1.414l6-6a1 1 0 1 0 -1.414-1.414z"/><path d="m21.707 4.293a1 1 0 0 0 -1.414 1.414l6 6a1 1 0 0 0 1.414-1.414z"/><path d="m40.293 19.293a1 1 0 0 0 0 1.414l6 6a1 1 0 0 0 1.414-1.414l-6-6a1 1 0 0 0 -1.414 0z"/><path d="m22.293 19.293-6 6a1 1 0 1 0 1.414 1.414l6-6a1 1 0 0 0 -1.414-1.414z"/><path d="m10 57v4a.977.977 0 0 0 .55.89l4 2a1 1 0 0 0 .45.11h9v-1.53a5.015 5.015 0 0 1 3.15-4.64l-9.89-5.56-6.76 3.86a1 1 0 0 0 -.5.87z"/><path d="m53.5 56.13-6.75-3.86-7.29 4.1 3.44-.36a1 1 0 1 1 .2 1.98l-14.57 1.51a3.021 3.021 0 0 0 -2.53 2.97v1.53h23a1 1 0 0 0 .45-.11l4-2a.913.913 0 0 0 .23-.15l.03-.03a1.169 1.169 0 0 0 .26-.46 1.068 1.068 0 0 0 .03-.25v-4a1 1 0 0 0 -.5-.87z"/><path d="m13.51 47.87 16 9a1.014 1.014 0 0 0 1.2-.16l.15-.15a4.023 4.023 0 0 0 1.14-2.33 4.023 4.023 0 0 0 1.14 2.33l.15.15a1.024 1.024 0 0 0 .71.29.947.947 0 0 0 .49-.13l16-9a.994.994 0 0 0 .41-1.3l-7.81-16.27c-.02-.05-.05-.09-.07-.13a4.985 4.985 0 0 0 -4.12-2.17h-13.8a4.985 4.985 0 0 0 -4.12 2.17c-.02.04-.05.08-.07.13l-7.81 16.27a.994.994 0 0 0 .41 1.3zm10.49-7.01v4.14l8 4 8-4v-4.14l2.63 4.74-8.55 4.61a3.95 3.95 0 0 0 -2.07 2.94c0 .03-.01.07-.01.11 0-.04-.01-.08-.01-.11a3.95 3.95 0 0 0 -2.07-2.94l-8.55-4.61z"/></svg>
