<svg id="svg5175" height="512" viewBox="0 0 16.933333 16.933334" width="512" xmlns="http://www.w3.org/2000/svg" xmlns:svg="http://www.w3.org/2000/svg"><g id="layer1" transform="translate(0 -280.067)"><path id="path3032" d="m3.7036504 280.59479a.26460982.26460982 0 0 0 -.2635514.26562v2.38125h-2.1171826c-.43516289 0-.7937421.35859-.79375004.79375v.52916c-.00508.35784.53425994.35784.52916674 0v-.52916c.0000026-.15115.1134454-.26459.2645833-.26459h2.1171826v.52917h-1.5880159c-.1461188.00002-.2645675.11847-.2645834.26458v7.40834c.0000159.14612.1184646.26456.2645834.26458h13.2291669c.146119-.00001.264567-.11846.264583-.26458v-7.40834c-.000016-.14611-.118464-.26457-.264583-.26458h-1.586466v-.52917h2.115632c.151138 0 .264584.11344.264584.26459v9.525c0 .15114-.113435.26458-.264584.26458h-14.2874996c-.1511485 0-.2645833-.11344-.2645833-.26458v-6.61459c.00508-.35783-.53425997-.35783-.52916674 0v6.61459c0 .43515.35859773.79375.79375004.79375h5.523693c-.063868.31718-.2601462.89311-.8774641 1.58698h-.6779948c-.1465792 0-.2645834.118-.2645834.26458 0 .14657.1180042.26459.2645834.26459h6.3500005c.146579 0 .264583-.11802.264583-.26459 0-.14658-.118004-.26458-.264583-.26458h-.676963c-.634924-.72185-.827744-1.27961-.886251-1.58698h5.532479c.435153 0 .793751-.3586.793751-.79375v-9.525c0-.43516-.358588-.79375-.793751-.79375h-2.115632v-2.38125a.26460982.26460982 0 0 0 -.265618-.26562h-2.380734a.26460982.26460982 0 0 0 -.266133.26562v1.3224h-1.8515652v-.52917c.0001905-.13609-.1025816-.25005-.2516637-.26355h-2.1290704v-.52968a.26460982.26460982 0 0 0 -.2656178-.26562zm.2656153.52968h1.8515674v1.05834h-1.8515674zm7.1427183 0h1.853634v5.82239h-1.853634zm-4.7619843.79479h1.8515675v5.0276h-1.8515675zm-2.380734.79323h1.8515674v.52917h-1.8515674zm4.7614681 0h1.8515652v1.05937h-1.8515652zm-4.7614681 1.05833h1.8515674v5.82032h-1.8515674zm4.7614681.53021h1.8515652v.52709h-1.8515652zm-6.6140674.52813h1.3234326v4.76198h-.5291667a.26460982.26460982 0 0 0 -.2661337.26562v1.05885a.26460982.26460982 0 0 0 .2661337.26355h11.1109497a.26460982.26460982 0 0 0 .265618-.26355v-1.05885a.26460982.26460982 0 0 0 -.265618-.26562h-.527098v-4.76198h1.321882v6.87916h-12.6999996zm-1.32704949.52555c-.14592301.002-.26244815.12227-.26045055.2682v.26458c-.00508.35783.53425994.35783.52916674 0v-.26458c.00212-.14917-.11955734-.27053-.26871619-.2682zm7.94111689.003h1.8515652v4.23386h-1.8515652zm-2.3807341 2.11868h1.8515675v.52709h-1.8515675zm4.7619843 0h1.853634v.52709h-1.853634zm-4.7619843 1.05626h1.8515675v1.05885h-1.8515675zm4.7619843 0h1.853634v1.05885h-1.853634zm-7.9375002 1.58766h10.5838492v.52968h-10.5838492zm4.7625 2.64583c-.1465792 0-.2645833.118-.2645833.26458 0 .14657.1180041.26459.2645833.26459h1.0583334c.1465791 0 .2645833-.11802.2645833-.26459 0-.14658-.1180042-.26458-.2645833-.26458zm-.5457031 1.58802h2.1528405c.044675.31844.1989455.8968.7332878 1.58698h-3.6230352c.5399722-.68909.6934941-1.26817.7369069-1.58698z" font-variant-ligatures="normal" font-variant-position="normal" font-variant-caps="normal" font-variant-numeric="normal" font-variant-alternates="normal" font-feature-settings="normal" text-indent="0" text-align="start" text-decoration-line="none" text-decoration-style="solid" text-decoration-color="rgb(0,0,0)" text-transform="none" text-orientation="mixed" white-space="normal" shape-padding="0" isolation="auto" mix-blend-mode="normal" solid-color="rgb(0,0,0)" solid-opacity="1" vector-effect="none"/></g></svg>