<svg id="Capa_1" enable-background="new 0 0 497 497" height="512" viewBox="0 0 497 497" width="512" xmlns="http://www.w3.org/2000/svg"><g><path d="m128.14 45.18 62.3 182.93-190.44-45c0-3.65 1.32-7.29 3.96-10.16l113.14-122.93c2.84-3.09 6.84-4.84 11.04-4.84z" fill="#e8f3ff"/><path d="m248.5 45.18-45 68.965 45 98.965 120.36-167.93z" fill="#cfddff"/><path d="m128.14 45.18 120.36 167.93v-167.93z" fill="#e8f3ff"/><path d="m497 183.11-190.44 45 62.3-182.93c4.2 0 8.19 1.75 11.03 4.83 18.28 19.86 87.78 95.38 113.15 122.95 2.64 2.87 3.96 6.5 3.96 10.15z" fill="#e8f3ff"/><path d="m248.5 183.11v45h-120.36v-182.93c4.56 0 8.63 2.04 11.39 5.24 0 0 105.36 122.93 105.35 122.94 2.25 2.62 3.62 6.02 3.62 9.75z" fill="#fff"/><path d="m248.5 183.11v45h120.36v-182.93c-4.56 0-8.63 2.04-11.39 5.24 0 0-105.36 122.93-105.35 122.94-2.25 2.62-3.62 6.02-3.62 9.75z" fill="#fff"/><path d="m167.993 371.501 69.467 75.479h22.08l69.467-75.479z" fill="#cfddff"/><path d="m496.06 188.32h-495.12c.65 1.79 1.66 3.47 3.02 4.95l164.033 178.231c20.718 22.511 49.914 35.319 80.507 35.319s59.789-12.809 80.507-35.319l164.033-178.231c1.36-1.48 2.37-3.16 3.02-4.95z" fill="#e8f3ff"/><path d="m278.79 402.539h-60.58l16.406 39.972c2.311 5.632 7.796 9.309 13.884 9.309s11.572-3.677 13.884-9.309z" fill="#b5c0ff"/><path d="m306.56 228.11-58.06-45-58.06 45v106.77l27.77 67.659c9.755 2.811 19.942 4.281 30.29 4.281s20.535-1.47 30.29-4.281l27.77-67.659z" fill="#cfddff"/><path d="m128.14 183.11h120.36c0 1.92-.38 3.76-1.04 5.45.02 0-56.14 144.07-57.02 146.32l-62.3-91.77z" fill="#e8f3ff"/><path d="m368.86 183.11v61.796l-62.3 89.974c-.88-2.25-57.04-146.32-57.03-146.32-.66-1.69-1.03-3.53-1.03-5.45z" fill="#e8f3ff"/><g fill="#cfddff"><path d="m368.86 183.11s-62.3 151.77-62.29 151.8c0 0 121.05-91.76 184.512-139.878 3.732-2.83 5.918-7.238 5.918-11.922z"/><path d="m128.14 183.11s62.3 151.77 62.29 151.8c0 0-121.05-91.76-184.512-139.878-3.733-2.83-5.918-7.238-5.918-11.922z"/></g></g></svg>