<svg xmlns="http://www.w3.org/2000/svg" viewBox="0 0 32 32">
  <circle cx="16" cy="16" r="16" fill="#2775CA"/>
  <path fill="white" d="M16 6a10 10 0 1 0 0 20A10 10 0 0 0 16 6zm0 1.6a8.4 8.4 0 1 1 0 16.8A8.4 8.4 0 0 1 16 7.6z"/>
  <path fill="white" d="M17.1 15.4c-1.08-.28-1.44-.55-1.44-.99 0-.5.46-.85 1.23-.85.82 0 1.12.39 1.15.97h1.01c-.04-.8-.52-1.53-1.49-1.78V11.6h-1.14v1.13c-.87.2-1.57.77-1.57 1.66 0 1.06.88 1.59 2.17 1.9 1.21.3 1.46.73 1.46 1.18 0 .34-.24.88-1.23.88-.94 0-1.34-.42-1.4-.97H15c.07 1.01.8 1.58 1.66 1.79V20.4h1.14v-1c.88-.17 1.57-.67 1.57-1.6 0-1.28-1.1-1.73-2.17-2z"/>
</svg>
