<svg viewBox="0 0 32 32" fill="none" xmlns="http://www.w3.org/2000/svg">
  <circle cx="16" cy="16" r="16" fill="#2775CA"/>
  <path fill-rule="evenodd" clip-rule="evenodd" d="M16 5C9.925 5 5 9.925 5 16s4.925 11 11 11 11-4.925 11-11S22.075 5 16 5zm0 1.5c5.247 0 9.5 4.253 9.5 9.5S21.247 25.5 16 25.5 6.5 21.247 6.5 16 10.753 6.5 16 6.5z" fill="white"/>
  <path d="M17.1 15.28c-1.16-.29-1.53-.58-1.53-1.04 0-.52.48-.89 1.29-.89.85 0 1.17.4 1.2.99h1.06c-.04-.81-.53-1.55-1.52-1.8V11.5h-1.2v1.03c-.92.2-1.66.79-1.66 1.73 0 1.1.91 1.65 2.24 1.98 1.28.31 1.54.77 1.54 1.25 0 .36-.26.93-1.29.93-.98 0-1.37-.44-1.43-1h-1.08c.07 1.04.83 1.63 1.68 1.82V20.5h1.2v-1.03c.93-.18 1.66-.71 1.66-1.68 0-1.34-1.15-1.8-2.16-2.05v-.44z" fill="white"/>
</svg>
