<?xml version="1.0" encoding="iso-8859-1"?>
<!-- Generator: Adobe Illustrator 16.0.0, SVG Export Plug-In . SVG Version: 6.00 Build 0)  -->
<!DOCTYPE svg PUBLIC "-//W3C//DTD SVG 1.1//EN" "http://www.w3.org/Graphics/SVG/1.1/DTD/svg11.dtd">
<svg version="1.1" id="Capa_1" xmlns="http://www.w3.org/2000/svg" xmlns:xlink="http://www.w3.org/1999/xlink" x="0px" y="0px"
	 width="551.685px" height="551.685px" viewBox="0 0 551.685 551.685" style="enable-background:new 0 0 551.685 551.685;"
	 xml:space="preserve">
<g>
	<g>
		<path d="M205.526,287.057c-0.306,0.886-0.604,1.774-0.897,2.668c-0.293,0.89-0.616,1.759-0.894,2.656
			c-5.198,16.769-8.025,34.872-8.303,54.269c-0.016,1.138,0.053,2.317,0.053,3.464c0,1.15,0.041,2.317,0.057,3.472
			c57.997,55.378,119.336,99.724,174.437,125.848c61.6,29.205,108.605,32.212,132.347,8.466
			c29.54-29.539,17.834-93.64-32.117-175.872c-0.212-0.347-0.457-0.661-0.734-0.935c-1.53-1.53-3.938-1.922-5.912-0.824
			c-2.325,1.294-3.215,4.194-2.016,6.569c25.79,50.935,30.433,90.294,12.742,107.985c-35.598,35.598-152.865-21.515-256.065-124.718
			C213.898,295.78,209.684,291.427,205.526,287.057z"/>
		<path d="M59.621,187.007c0.465-0.967,0.992-1.909,1.469-2.876c0.392-0.792,0.808-1.571,1.208-2.358
			c5.222-10.294,11.065-20.327,17.67-29.972c4.019-5.871,8.315-11.53,12.774-17.046c0.542-0.673,1.061-1.367,1.612-2.032
			c0.673-0.816,1.358-1.616,2.04-2.424C80.14,91.18,77.842,59.703,93.501,44.044c17.308-17.304,55.374-13.187,104.693,11.134
			c1.012-0.429,2.023-0.861,3.04-1.273c1.636-0.665,3.268-1.33,4.913-1.963c0.767-0.293,1.542-0.555,2.309-0.844
			c-0.22-0.829-0.6-1.616-1.224-2.24c-0.273-0.273-0.587-0.522-0.934-0.735C124.073-1.824,59.972-13.533,30.433,16.006
			C6.688,39.751,9.694,86.753,38.899,148.353C44.864,160.948,51.836,173.877,59.621,187.007z"/>
		<path d="M105.647,150.36c-0.645,0.824-1.317,1.628-1.95,2.46c-0.526,0.689-1.032,1.395-1.554,2.093
			c-10.747,14.423-20.017,30.139-27.532,46.94c-0.367,0.824-0.775,1.628-1.134,2.456c-0.433,1.004-0.82,2.032-1.241,3.044
			c-18.185,43.501-24.582,93.967-13.639,148.271c9.364,46.472,34.203,88.965,67.663,122.429
			c52.645,52.645,126.639,82.922,195.233,71.073c-36.667-13.112-67.248-31.232-90.785-54.77
			c-33.101-33.101-52.273-76.92-54.848-132.579c-0.433-9.315-0.277-18.373,0.298-27.238c0.073-1.118,0.069-2.269,0.159-3.379
			c0.085-1.072,0.257-2.104,0.359-3.17c1.73-18.438,5.61-35.859,11.722-52.065c0.322-0.857,0.697-1.681,1.032-2.53
			c0.338-0.861,0.726-1.689,1.077-2.542c16.903-41.053,47.993-74.231,92.641-97.08c93.615-47.903,178.646-26.536,252.286,47.104
			c0.56,0.559,1.118,1.122,1.673,1.685c-10.143-33.631-30.514-67.695-59.147-96.329c-53.497-53.497-135.827-88.014-234.099-65.219
			C190.434,73.408,140.866,105.28,105.647,150.36z"/>
		<path d="M287.799,287.825c0.735,0.734,1.755,1.387,3.048,1.9l33.432,13.362l13.362,33.432c0.522,1.302,1.167,2.317,1.894,3.044
			c2.312,2.313,5.434,1.677,7.886-2.057l21.221-32.302l38.694,1.787c5.863,0.27,7.911-3.423,4.574-8.254l-20.89-30.216l10.51-35.504
			c0.832-2.815,0.449-5.022-0.853-6.32c-1.298-1.297-3.509-1.685-6.324-0.853l-35.504,10.51l-30.217-20.89
			c-4.826-3.337-8.666-1.285-8.572,4.582l0.6,37.185l-31.057,22.351C285.972,282.194,285.433,285.458,287.799,287.825z"/>
	</g>
</g>
<g>
</g>
<g>
</g>
<g>
</g>
<g>
</g>
<g>
</g>
<g>
</g>
<g>
</g>
<g>
</g>
<g>
</g>
<g>
</g>
<g>
</g>
<g>
</g>
<g>
</g>
<g>
</g>
<g>
</g>
</svg>
