<?xml version="1.0" encoding="iso-8859-1"?>
<!-- Generator: Adobe Illustrator 16.0.0, SVG Export Plug-In . SVG Version: 6.00 Build 0)  -->
<!DOCTYPE svg PUBLIC "-//W3C//DTD SVG 1.1//EN" "http://www.w3.org/Graphics/SVG/1.1/DTD/svg11.dtd">
<svg version="1.1" id="Capa_1" xmlns="http://www.w3.org/2000/svg" xmlns:xlink="http://www.w3.org/1999/xlink" x="0px" y="0px"
	 width="568.242px" height="568.242px" viewBox="0 0 568.242 568.242" style="enable-background:new 0 0 568.242 568.242;"
	 xml:space="preserve">
<g>
	<path d="M529.252,480.126c4.051-34.419,17.203-55.704,20.251-104.31c0,0,5.061-4.058,5.061-15.287c0-5.05-2.02-15.099-5.061-25.312
		c0-31.311-17.246-52.65-34.432-104.31c-1.059-29.37-14.18-49.621-30.386-60.777c9.101,0,20.221-7.087,20.221-18.226
		c0-6.059-4.021-16.193-11.12-25.3c0-57.742-7.081-95.203-51.671-102.29c-10.086-1.022-20.251-2.044-27.339-2.044
		c-31.371,0-43.562,14.18-48.617,42.54c1.047,3.036,1.978,7.081,1.978,9.125c0,13.152-13.134,22.283-15.142,29.364
		c0,4.051,8.061,4.051,9.106,7.087c0,2.02,1.06,5.073,1.06,7.081c0,8.109-2.105,13.183-2.105,13.183
		c1.046,20.251,33.458,12.136,33.458,26.328c0,1.004-1.059,4.125-1.059,5.147c-1.977,4.058-16.206,4.076-21.193,10.196h-5.056
		c-30.423,0-81.054,29.297-124.603,29.297c-16.818,0-75.894-9.168-130.423-13.36c3.452-5.985,8.666-13.543,12.901-13.543
		c15.19-8.084,21.273-17.987,21.273-25.067c0-5.067-4.058-12.546-6.083-18.599c0,0-6.071-4.241-17.216-4.241
		c-7.081,0-19.205,1.91-31.396,7.999c14.18-18.238,19.248-31.445,19.248-42.589c0-18.225-12.161-32.43-12.161-55.735
		c0-9.113,1.022-21.285,6.102-33.439L97.749,0C70.417,20.269,49.125,50.649,49.125,81.028c0,15.196,6.09,32.394,18.226,48.599
		c0,0-17.203-12.154-33.409-12.154c-7.087,0-16.181,3.048-21.249,11.138c-1.028,5.08-2.05,11.132-2.05,14.18
		c0,25.325,29.395,26.347,38.495,36.463c0,53.679,34.431,15.196,39.504,112.413l12.136-2.02c0-3.036,1.01-7.081,1.01-10.117
		c0-17.234-5.055-37.485-11.132-51.573c0-9.186,20.245-14.266,27.326-14.266c29.382,11.138,76.977,26.328,108.41,28.36
		c11.132,1.004,24.272,2.111,33.385,2.111c34.431,0,60.795-8.188,83.036-20.349c-13.108,17.234-19.149,27.344-28.274,36.536
		c2.975,12.087,16.212,24.224,27.356,24.224l1.978-1.004c-3.036,8.103-5.062,17.215-5.062,23.305
		c0,14.18,7.105,27.424,13.134,40.508c-10.043,4.052-17.167,19.756-19.156,28.868c-55.753-37.484-123.661-75.41-154.046-81.53
		h-4.045c-14.174,0-35.429,12.65-35.429,34.933c-21.292,69.878-16.218,93.281-30.386,159.182
		c-10.147,26.322-52.687,44.565-71.892,56.806h-3.066c-2.014,0-6.585,2.344-6.585,2.344v1.004c0,3.042,9.37,7.1,16.451,7.1
		c3.066,0,7.717-2.038,10.784-3.048c9.094,3.048,17.515,5.061,21.567,5.061c9.137,0,14.357-5.061,30.539-5.061
		c7.093,0,18.317,1.016,32.509,3.048c0.998,0,3.066,0.985,4.088,0.985c7.081,0,15.379-3.018,15.379-12.137
		c0-5.061-2.797-15.195-8.917-26.328v-2.025c0-48.599,44.382-75.025,44.382-118.575c0-5.979-2.631-14.18-4.639-21.267
		c38.47,39.504,60.533,60.851,77.669,71.989c-29.333,17.203-36.567,29.363-65.918,49.621c-3.097,4.058-6.2,15.196-6.2,24.303
		c0,15.195,8.097,33.434,31.396,33.434l2.007-1.022c0,0,46.628,9.112,110.375,9.112c22.246,0,47.559-1.003,73.923-4.058
		c13.177-2.02,62.834-4.174,80.05-10.227c5.037,7.087,11.145,7.987,13.177,7.987h2.025c0.998,0,3.042-0.9,3.042-2.913
		c0-3.048-3.042-8.574-5.073-10.594c-8.134-28.36-39.511-14.915-49.664-32.124l-14.181-15.049
		c31.438-11.145,41.519-41.457,41.519-63.728c0-10.215-2.98-20.233-5.024-25.294c-13.213-28.349-21.255-57.693-21.255-83.036
		c0-20.337,5.055-40.589,17.173-53.74c0,20.251,19.266,58.733,36.512,79.089c-4.101,12.148-5.073,31.31-5.073,49.529
		c0,13.25,0.967,29.468,0.967,41.53c0,17.301-2.02,31.487-7.1,34.522l1.059,1.017c0,1.003-1.059,7.087-1.059,12.142
		c0,7.081,2.075,19.247,15.239,30.386c0,8.104,6.077,24.321,14.18,25.325c0,0,2.014-5.062,2.014-13.165
		c0-6.07-2.014-15.195-4.039-23.305c2.032,2.032,9.112,17.234,15.196,20.27c0,5.062,0,18.22,4.032,39.499
		c12.161,0,9.095-23.299,11.151-23.299C557.6,523.664,551.528,496.313,529.252,480.126z M108.361,188.637
		c-0.098-0.067-0.184-0.288-0.263-0.649C108.177,188.214,108.238,188.447,108.361,188.637z M107.902,184.561
		c0,0-0.006,0.312-0.012,0.637c0-0.227-0.012-0.38-0.012-0.637C107.877,184.561,107.89,184.561,107.902,184.561z M109.952,188.587
		c0.128-0.134,0.269-0.3,0.416-0.471c0.098,0.067,0.189,0.128,0.288,0.159C110.399,188.52,110.166,188.606,109.952,188.587z
		 M409.673,524.691l-0.948-1.027c-15.27,0-50.631-8.104-79.028-13.164c3.079,0,9.106,1.003,14.168,1.003
		c24.272,0,63.813-5.049,72.926-5.049C414.777,512.531,413.785,524.691,409.673,524.691z"/>
</g>
<g>
</g>
<g>
</g>
<g>
</g>
<g>
</g>
<g>
</g>
<g>
</g>
<g>
</g>
<g>
</g>
<g>
</g>
<g>
</g>
<g>
</g>
<g>
</g>
<g>
</g>
<g>
</g>
<g>
</g>
</svg>
