<?xml version="1.0" encoding="iso-8859-1"?>
<!-- Generator: Adobe Illustrator 16.0.0, SVG Export Plug-In . SVG Version: 6.00 Build 0)  -->
<!DOCTYPE svg PUBLIC "-//W3C//DTD SVG 1.1//EN" "http://www.w3.org/Graphics/SVG/1.1/DTD/svg11.dtd">
<svg version="1.1" id="Capa_1" xmlns="http://www.w3.org/2000/svg" xmlns:xlink="http://www.w3.org/1999/xlink" x="0px" y="0px"
	 width="578.961px" height="578.961px" viewBox="0 0 578.961 578.961" style="enable-background:new 0 0 578.961 578.961;"
	 xml:space="preserve">
<g>
	<g>
		<path d="M312.578,0c0,0-53.114,11.371-60.531,79.193c12.167-2.163,24.66-3.354,37.438-3.354c19.837,0,39.026,2.774,57.267,7.858
			c-3.962-11.926-11.053-23.88-23.448-33.068C285.355,22.501,312.578,0,312.578,0z"/>
		<path d="M528.332,255.661c-9.188-12.395-21.143-19.49-33.068-23.448c5.084,18.238,7.858,37.43,7.858,57.267
			c0,12.774-1.191,25.272-3.354,37.438c67.821-7.418,79.192-60.531,79.192-60.531S556.459,293.605,528.332,255.661z"/>
		<path d="M266.388,578.961c0,0,53.114-11.371,60.531-79.193c-12.166,2.158-24.659,3.35-37.438,3.35
			c-19.837,0-39.025-2.775-57.267-7.857c3.962,11.926,11.053,23.879,23.448,33.068C293.606,556.459,266.388,578.961,266.388,578.961
			z"/>
		<path d="M79.193,252.042C11.367,259.459,0,312.576,0,312.576s22.501-27.217,50.628,10.723
			c9.188,12.395,21.143,19.49,33.068,23.447c-5.083-18.236-7.858-37.43-7.858-57.266C75.839,276.706,77.031,264.208,79.193,252.042z
			"/>
		<path d="M434.463,96.671c-15.292-2.272-28.776,1.183-40.025,6.834c27.879,15.798,51.861,37.663,70.16,63.811
			c42.787-53.228,13.248-98.862,13.248-98.862S481.179,103.611,434.463,96.671z"/>
		<path d="M114.367,167.321c18.299-26.149,42.281-48.018,70.16-63.812c-11.249-5.65-24.733-9.106-40.024-6.834
			c-46.72,6.94-43.383-28.217-43.383-28.217S71.576,114.089,114.367,167.321z"/>
		<path d="M101.119,510.506c0,0-3.337-35.158,43.383-28.217c15.292,2.271,28.776-1.18,40.024-6.834
			c-27.878-15.799-51.861-37.662-70.16-63.812C71.576,464.871,101.119,510.506,101.119,510.506z"/>
		<path d="M394.438,475.455c11.245,5.65,24.733,9.105,40.025,6.834c46.72-6.941,43.383,28.217,43.383,28.217
			s29.539-45.635-13.248-98.867C446.299,437.787,422.317,459.656,394.438,475.455z"/>
		<path d="M203.572,116.456c-30.404,15.157-56.275,38.07-74.994,66.165c-13.648,20.486-23.501,43.697-28.527,68.646
			c-2.489,12.358-3.811,25.133-3.811,38.213c0,21.538,3.595,42.237,10.126,61.6c5.443,16.137,12.934,31.338,22.212,45.264
			c18.719,28.09,44.59,51.008,74.994,66.164c7.817,3.896,15.937,7.268,24.309,10.09c19.364,6.533,40.062,10.127,61.6,10.127
			c13.081,0,25.855-1.322,38.213-3.811c16.789-3.383,32.778-8.967,47.695-16.406c30.404-15.156,56.275-38.07,74.994-66.164
			c13.647-20.486,23.501-43.701,28.527-68.65c2.489-12.359,3.811-25.133,3.811-38.213c0-21.538-3.594-42.236-10.126-61.6
			c-5.443-16.137-12.934-31.339-22.212-45.264c-18.719-28.091-44.59-51.008-74.994-66.166c-7.817-3.896-15.937-7.267-24.309-10.09
			c-19.364-6.532-40.062-10.126-61.6-10.126c-13.081,0-25.855,1.322-38.213,3.811C234.478,103.432,218.488,109.018,203.572,116.456z
			"/>
	</g>
</g>
<g>
</g>
<g>
</g>
<g>
</g>
<g>
</g>
<g>
</g>
<g>
</g>
<g>
</g>
<g>
</g>
<g>
</g>
<g>
</g>
<g>
</g>
<g>
</g>
<g>
</g>
<g>
</g>
<g>
</g>
</svg>
