<?xml version="1.0" encoding="iso-8859-1"?>
<!-- Generator: Adobe Illustrator 16.0.0, SVG Export Plug-In . SVG Version: 6.00 Build 0)  -->
<!DOCTYPE svg PUBLIC "-//W3C//DTD SVG 1.1//EN" "http://www.w3.org/Graphics/SVG/1.1/DTD/svg11.dtd">
<svg version="1.1" id="Capa_1" xmlns="http://www.w3.org/2000/svg" xmlns:xlink="http://www.w3.org/1999/xlink" x="0px" y="0px"
	 width="563.529px" height="563.529px" viewBox="0 0 563.529 563.529" style="enable-background:new 0 0 563.529 563.529;"
	 xml:space="preserve">
<g>
	<path d="M544.65,265.375c-38.642-34.388-34.389-38.69-53.716-52.632c-22.503-15.043-44.027-20.41-65.472-20.41
		c-39.786,0-82.699,17.179-133.275,17.179c-10.985,0-23.611-1.579-35.832-3.372c-3.348-0.49-7.871-2.968-9.896-5.673
		c-19.596-26.114-37.154-76.01-57.65-101.28c-2.129-2.625-6.211-6.31-8.354-8.929c-3.097-3.794-4.241-7.283-4.241-9.639
		c0-5.361,7.46-10.747,16.077-13.966c9.639-3.269,24.762-6.444,39.786-6.444c44.817,0,105.821,22.271,137.828,80.508
		c1.628,2.962,5.251,4.113,8.226,2.509l1.12-0.606c2.975-1.609,4.511-5.514,3.243-8.647C360.769,80.081,283.351,0,188.032,0
		c-29.015,0-61.237,7.516-92.437,24.707L6.684,64.162c-3.09,1.371-5.116,5.184-4.529,8.507L6.47,97.137
		c0.587,3.329,2.552,8.366,4.988,10.71c8.244,7.938,25.343,16.818,47.625,16.818c4.823,0,11.451-1.206,17.638-2.264
		c3.329-0.569,8.599,0.146,11.12,2.399c10.172,9.094,14.217,29.04,14.217,51.42c0,25.778-4.302,59.064-4.302,88.073
		c0,36.243,5.667,69.658,32.001,83.44c2.999,1.566,4.951,5.172,4.174,8.458L86.262,557.287c-0.79,3.287,1.322,6.242,4.7,6.242h11.42
		c3.378,0,7.172-2.821,8.47-5.942l45.809-110.27c1.297-3.121,1.909-3.018,1.371,0.318L140.62,554.797
		c-0.539,3.335,1.75,6.229,5.122,6.493l15.729,1.199c3.372,0.257,7.185-2.05,8.525-5.159L245.7,381.625
		c1.34-3.103,4.994-4.676,8.226-3.678c10.704,3.292,23.097,5.587,33.984,5.587c34.713,0,69.413-14.009,82.577-19.951
		c3.078-1.389,6.139,0.049,7.001,3.317c7.479,28.213,17.834,42.546,17.834,60.668l-6.102,128.214
		c-0.159,3.378,2.441,6.278,5.82,6.487l4.963,0.306c3.372,0.208,6.824-2.271,7.711-5.532l39.731-146.134
		c0.888-3.262,3.801-4.266,6.506-2.24l11.726,8.776c2.705,2.025,4.755,6.401,4.578,9.78l-6.892,130.441
		c-0.171,3.372,2.43,5.862,5.808,5.862h14.627c3.378,0,6.879-2.387,7.827-5.63c10.949-37.394,19.327-60.9,32.663-87.485
		c9.657-24.707,19.314-49.357,19.314-65.472c0-1.493-0.459-3.188-0.955-4.829c-0.789-2.625-2.441-7.295-4.834-9.682
		c-4.535-4.528-8.728-3.494-12.804-6.579c-2.692-2.038-6.107-6.396-7.956-9.229c-3.77-5.759-5.661-13.782-5.661-21.182
		c0-4.486,0.521-10.532,1.567-15.606c0.679-3.311,2.827-8.359,3.916-11.561c3.379-9.927,8.733-27.601,18.104-27.601
		c3.507,0,8.391,2.105,13.531,8.011c2.222,2.546,4.706,2.319,5.979-0.808c1.921-4.719,3.476-8.28,5.3-11.646
		c1.609-2.968,2.441-7.901,0.765-10.832C556.271,275.914,548.107,267.928,544.65,265.375z"/>
</g>
<g>
</g>
<g>
</g>
<g>
</g>
<g>
</g>
<g>
</g>
<g>
</g>
<g>
</g>
<g>
</g>
<g>
</g>
<g>
</g>
<g>
</g>
<g>
</g>
<g>
</g>
<g>
</g>
<g>
</g>
</svg>
