<?xml version="1.0" encoding="iso-8859-1"?>
<!-- Generator: Adobe Illustrator 16.0.0, SVG Export Plug-In . SVG Version: 6.00 Build 0)  -->
<!DOCTYPE svg PUBLIC "-//W3C//DTD SVG 1.1//EN" "http://www.w3.org/Graphics/SVG/1.1/DTD/svg11.dtd">
<svg version="1.1" id="Capa_1" xmlns="http://www.w3.org/2000/svg" xmlns:xlink="http://www.w3.org/1999/xlink" x="0px" y="0px"
	 width="558.961px" height="558.961px" viewBox="0 0 558.961 558.961" style="enable-background:new 0 0 558.961 558.961;"
	 xml:space="preserve">
<g>
	<g>
		<path d="M306.322,113.004c-2.023-14.292-8.059-30.825-23.635-42.371c-33.175-24.594-9.376-44.272-9.376-44.272
			s-60.192,12.868-53.097,96.79c10.625-2.232,21.624-3.423,32.901-3.423c11.942,0,23.566,1.359,34.77,3.855
			C293.809,119.72,299.957,116.183,306.322,113.004z"/>
		<path d="M232.923,532.6c0,0,60.192-12.868,53.096-96.79c-10.624,2.231-21.623,3.423-32.9,3.423c-18.96,0-37.152-3.337-54.04-9.425
			c-0.514,15.827,2.407,42.171,24.468,58.524C256.722,512.922,232.923,532.6,232.923,532.6z"/>
		<path d="M102.792,333.521c-6.087-16.888-9.425-35.08-9.425-54.04c0-11.277,1.191-22.281,3.423-32.901
			C12.868,239.484,0,299.677,0,299.677s19.674-23.799,44.272,9.376C60.625,331.108,86.965,334.034,102.792,333.521z"/>
		<path d="M119.377,192.262c16.128-24.643,38.854-44.582,65.671-57.267c-10.824-11.559-31.526-28.136-58.703-24.101
			c-40.849,6.067-37.932-24.676-37.932-24.676S54.925,137.917,119.377,192.262z"/>
		<path d="M126.35,448.066c27.177,4.035,47.879-12.542,58.703-24.101c-26.822-12.685-49.548-32.624-65.672-57.268
			c-64.452,54.346-30.963,106.044-30.963,106.044S85.5,441.999,126.35,448.066z"/>
		<path d="M203.192,279.48c0-54.174,23.289-103,60.359-137.031c2.016-1.853,4.084-3.652,6.181-5.41
			c-5.455-0.628-10.992-0.987-16.614-0.987c-10.571,0-20.865,1.179-30.788,3.35c-12.771,2.795-24.904,7.283-36.153,13.231
			c-21.958,11.612-40.522,28.756-53.868,49.58c-8.988,14.019-15.602,29.698-19.274,46.483c-2.171,9.923-3.35,20.216-3.35,30.788
			c0,14.79,2.244,29.058,6.401,42.481c3.843,12.407,9.355,24.076,16.222,34.79c13.346,20.824,31.91,37.969,53.868,49.58
			c7.764,4.104,15.932,7.54,24.456,10.18c13.423,4.157,27.691,6.401,42.481,6.401c5.622,0,11.159-0.359,16.614-0.987
			c-2.097-1.763-4.162-3.562-6.181-5.41C226.477,382.48,203.192,333.654,203.192,279.48z"/>
		<path d="M389.236,109.752c-28.951,0-56.223,7.303-80.1,20.139c-0.689,0.371-1.369,0.759-2.055,1.138
			c-2.449,1.363-4.859,2.783-7.234,4.259c-2.994,1.865-5.916,3.831-8.785,5.871c-0.604,0.429-1.211,0.853-1.811,1.29
			c-42.236,30.902-69.74,80.804-69.74,137.031c0,57.022,28.295,107.528,71.55,138.32c2.869,2.04,5.791,4.007,8.785,5.871
			c3.039,1.889,6.133,3.696,9.289,5.397c23.877,12.836,51.148,20.139,80.1,20.139c93.586,0,169.725-76.137,169.725-169.728
			C558.961,185.889,482.822,109.752,389.236,109.752z"/>
	</g>
</g>
<g>
</g>
<g>
</g>
<g>
</g>
<g>
</g>
<g>
</g>
<g>
</g>
<g>
</g>
<g>
</g>
<g>
</g>
<g>
</g>
<g>
</g>
<g>
</g>
<g>
</g>
<g>
</g>
<g>
</g>
</svg>
