<?xml version="1.0" encoding="iso-8859-1"?>
<!-- Generator: Adobe Illustrator 16.0.0, SVG Export Plug-In . SVG Version: 6.00 Build 0)  -->
<!DOCTYPE svg PUBLIC "-//W3C//DTD SVG 1.1//EN" "http://www.w3.org/Graphics/SVG/1.1/DTD/svg11.dtd">
<svg version="1.1" id="Capa_1" xmlns="http://www.w3.org/2000/svg" xmlns:xlink="http://www.w3.org/1999/xlink" x="0px" y="0px"
	 width="592.963px" height="592.963px" viewBox="0 0 592.963 592.963" style="enable-background:new 0 0 592.963 592.963;"
	 xml:space="preserve">
<g>
	<g>
		<path d="M458.854,270.249c0-58.785-64.855-107.206-147.383-112.494c1.674,2.701,2.689,5.854,2.689,9.261v15.472
			c11.248,0.93,22.072,2.725,32.312,5.292l5.219-5.218c3.338-3.337,7.781-5.178,12.502-5.178s9.164,1.84,12.5,5.178
			c3.342,3.337,5.182,7.781,5.182,12.501c0,1.84-0.359,3.607-0.893,5.312c32.455,16.209,53.395,41.493,53.395,69.874
			c0,46.749-56.77,85.13-128.377,88.278v-16.307c0-5.26-4.264-9.52-9.519-9.52c-5.255,0-9.519,4.264-9.519,9.52v16.307
			c-71.612-3.148-128.381-41.525-128.381-88.278c0-28.381,20.938-53.665,53.395-69.874c-0.539-1.706-0.894-3.472-0.894-5.312
			c0-4.725,1.84-9.164,5.178-12.501s7.78-5.178,12.501-5.178s9.164,1.84,12.501,5.178l5.219,5.218
			c10.241-2.566,21.065-4.366,32.313-5.292v-15.472c0-3.407,1.012-6.561,2.688-9.261c-82.526,5.283-147.382,53.709-147.382,112.494
			c0,62.306,72.844,112.995,162.376,112.995C386.008,383.244,458.854,332.555,458.854,270.249z"/>
		<path d="M528.547,191.305c25.312,27.103,39.932,58.952,39.932,93.003c0,98.43-122.016,178.508-272.001,178.508
			c-15.63,0-30.931-0.918-45.843-2.586c-0.71,8.441-2.844,16.475-6.157,23.875c16.899,2.057,34.255,3.191,52.003,3.191
			c163.478,0,296.482-91.062,296.482-202.988c0-40.82-17.752-78.834-48.156-110.695C540.67,180.591,535.129,186.617,528.547,191.305
			z"/>
		<path d="M104.566,438.852c1.693-8.111,4.778-15.697,8.895-22.604c-54.639-32.674-88.985-79.725-88.985-131.943
			c0-98.43,122.017-178.508,272.001-178.508c52.167,0,100.927,9.706,142.373,26.483c1.732-8.115,5.213-15.574,9.979-22.036
			c-44.553-18.348-96.676-28.927-152.347-28.927C133.004,81.316,0,172.378,0,284.305C-0.004,346.152,40.649,401.588,104.566,438.852
			z"/>
		<path d="M127.708,424.146c-4.174,6.879-6.973,14.672-7.956,23.039c-0.265,2.236-0.437,4.496-0.437,6.803
			c0,31.844,25.814,57.658,57.658,57.658c21.8,0,40.759-12.102,50.56-29.947c3.896-7.096,6.292-15.109,6.891-23.623
			c0.094-1.355,0.208-2.705,0.208-4.088c0-31.846-25.814-57.66-57.659-57.66C156.068,396.334,137.818,407.496,127.708,424.146z"/>
		<path d="M495.209,185.687c7.855,0,15.166-2.228,21.42-6.03c6.961-4.231,12.559-10.445,16.023-17.875
			c2.473-5.304,3.896-11.196,3.896-17.434c0-22.832-18.508-41.338-41.34-41.338c-12.357,0-23.414,5.451-30.99,14.043
			c-5.316,6.03-8.891,13.606-9.969,21.983c-0.225,1.742-0.379,3.504-0.379,5.308C453.875,167.176,472.383,185.687,495.209,185.687z"
			/>
		<circle cx="296.477" cy="262.779" r="60.776"/>
		<path d="M305.996,183.337v-1.367v-14.953c0-5.259-4.264-9.519-9.519-9.519c-5.255,0-9.519,4.264-9.519,9.519v14.953v1.367
			c0,5.259,4.264,9.519,9.519,9.519C301.732,192.855,305.996,188.596,305.996,183.337z"/>
		<path d="M392.238,272.301c5.26,0,9.52-4.264,9.52-9.519c0-5.255-4.264-9.519-9.52-9.519h-16.32c-5.258,0-9.518,4.264-9.518,9.519
			c0,5.255,4.264,9.519,9.518,9.519H392.238z"/>
		<path d="M200.715,253.26c-5.259,0-9.519,4.264-9.519,9.519c0,5.255,4.264,9.519,9.519,9.519h16.32
			c5.259,0,9.519-4.263,9.519-9.519c0-5.255-4.264-9.519-9.519-9.519H200.715z"/>
		<path d="M364.189,185.544c-2.436,0-4.873,0.93-6.732,2.787l-1.943,1.942l-9.596,9.596c-3.717,3.717-3.717,9.748,0,13.464
			c1.861,1.86,4.297,2.787,6.732,2.787s4.871-0.93,6.732-2.787l11.537-11.539c1.396-1.395,2.266-3.113,2.615-4.916
			c0.58-2.999-0.289-6.226-2.615-8.548C369.064,186.474,366.629,185.544,364.189,185.544z"/>
		<path d="M345.918,312.221c-3.717,3.717-3.717,9.746,0,13.463l11.539,11.539c3.717,3.717,9.746,3.717,13.463,0
			s3.717-9.748,0-13.465l-11.537-11.537C355.666,308.504,349.635,308.504,345.918,312.221z"/>
		<path d="M235.493,337.227l11.539-11.539c3.717-3.717,3.717-9.746,0-13.463c-3.717-3.717-9.748-3.717-13.464,0l-11.538,11.537
			c-3.717,3.717-3.717,9.748,0,13.465C225.75,340.943,231.776,340.943,235.493,337.227z"/>
		<path d="M233.572,213.337c1.86,1.86,4.296,2.787,6.732,2.787c2.436,0,4.872-0.93,6.732-2.787c3.717-3.717,3.717-9.747,0-13.464
			l-9.596-9.596l-1.942-1.942c-1.861-1.86-4.296-2.787-6.732-2.787c-2.436,0-4.871,0.931-6.732,2.787
			c-2.326,2.322-3.194,5.549-2.615,8.548c0.347,1.799,1.22,3.521,2.615,4.917L233.572,213.337z"/>
	</g>
</g>
<g>
</g>
<g>
</g>
<g>
</g>
<g>
</g>
<g>
</g>
<g>
</g>
<g>
</g>
<g>
</g>
<g>
</g>
<g>
</g>
<g>
</g>
<g>
</g>
<g>
</g>
<g>
</g>
<g>
</g>
</svg>
