<?xml version="1.0" encoding="iso-8859-1"?>
<!-- Generator: Adobe Illustrator 16.0.0, SVG Export Plug-In . SVG Version: 6.00 Build 0)  -->
<!DOCTYPE svg PUBLIC "-//W3C//DTD SVG 1.1//EN" "http://www.w3.org/Graphics/SVG/1.1/DTD/svg11.dtd">
<svg version="1.1" id="Capa_1" xmlns="http://www.w3.org/2000/svg" xmlns:xlink="http://www.w3.org/1999/xlink" x="0px" y="0px"
	 width="587.52px" height="587.52px" viewBox="0 0 587.52 587.52" style="enable-background:new 0 0 587.52 587.52;"
	 xml:space="preserve">
<g>
	<path d="M67.273,153v-18.36H49.941c-7.326,0-13.268,5.942-13.268,13.274v41.806H78.24C71.331,179.15,67.273,166.549,67.273,153z"/>
	<path d="M226.394,153c0,13.549-4.058,26.15-10.967,36.72h35.447v-18.36v-23.446V12.24c0-6.763-5.484-12.24-12.24-12.24h-18.36
		c-6.756,0-12.24,5.477-12.24,12.24v15.141c11.347,12.056,18.36,28.237,18.36,46.059V153z"/>
	<path d="M250.874,201.96h-24.48h-5.025h-16.23c-12.057,11.346-28.238,18.36-46.059,18.36H134.6
		c-17.828,0-34.009-7.014-46.059-18.36H72.904h-5.63c-33.801,0-61.2,27.399-61.2,61.2v1.096V410.04v11.145
		c0,17.503,14.187,31.695,31.696,31.695h3.935c17.503,0,31.689-14.192,31.689-31.695v134.64c0,17.503,14.186,31.695,31.695,31.695
		h3.935c17.503,0,31.689-14.192,31.689-31.695V403.92h18.36v151.904c0,17.503,14.187,31.695,31.696,31.695h3.935
		c17.503,0,31.689-14.192,31.689-31.695V403.92v-5.024v-32.026l12.24,0.165c6.756,0.092,12.24-5.312,12.24-12.074v-85.68h79.559
		v-67.32h-48.959H250.874z M116.233,354.96c-6.756,0-12.24-5.478-12.24-12.24v-62.356V269.28c0-6.763,5.484-12.24,12.24-12.24h61.2
		c6.756,0,12.24,5.478,12.24,12.24v73.44c0,6.763-5.483,12.24-12.24,12.24h-43.862H116.233z"/>
	<path d="M397.753,204.249v62.736c12.24-4.664,18.361-16.041,18.361-29.4v-3.936C416.114,220.289,409.993,208.912,397.753,204.249z"
		/>
	<path d="M109.477,201.96c7.54,3.886,16.065,6.12,25.116,6.12h24.48c9.052,0,17.577-2.234,25.117-6.12
		c6.003-3.091,11.346-7.259,15.814-12.24c8.77-9.755,14.149-22.607,14.149-36.72V73.44c0-9.052-2.234-17.577-6.12-25.117
		c-9.149-17.766-27.638-29.963-48.96-29.963h-24.48c-30.374,0-55.08,24.712-55.08,55.08v61.2V153c0,14.112,5.38,26.964,14.144,36.72
		C98.13,194.701,103.473,198.869,109.477,201.96z M103.993,108.134c0-22.54,18.274-40.814,40.814-40.814h4.051
		c22.54,0,40.814,18.274,40.814,40.814v26.506v14.266c0,22.54-18.274,40.814-40.814,40.814h-4.051
		c-22.54,0-40.814-18.274-40.814-40.814V134.64V108.134z"/>
	<path d="M561.433,39.26c-23.764,22.209-50.881,18.403-77.418,4.363c-12.246-6.475-60.441-15.324-87.246-7.882
		c0,0.067,0.055,0.128,0.092,0.189c0.256-0.067,0.502-0.128,0.729-0.189c0.029,0.471,0.164,0.899,0.164,1.371V171.06
		c0-0.502,2.656-1.053,4.174-1.53c12.668-4.008,22.062-5.924,35.527-3.66c25.037,4.205,47.521,18.954,72.889,21.267
		c31.102,2.833,69.934-13.427,70.797-47.602c0.758-29.988-0.129-60.11-0.129-90.117C582.597,40.282,570.185,31.077,561.433,39.26z"
		/>
	<path d="M364.093,26.083c-9.908,0-21.42,3.678-21.42,11.028V201.96v67.32v299.482c0,7.356,11.512,11.028,21.42,11.028
		s21.42-3.678,21.42-11.028V269.28h-1.096c0.49,0,0.803-0.019,1.096-0.043v-67.234c-0.293-0.024-0.605-0.042-1.096-0.042h1.096
		v-30.129V41.561v-4.449C385.513,29.761,374.001,26.083,364.093,26.083z"/>
</g>
<g>
</g>
<g>
</g>
<g>
</g>
<g>
</g>
<g>
</g>
<g>
</g>
<g>
</g>
<g>
</g>
<g>
</g>
<g>
</g>
<g>
</g>
<g>
</g>
<g>
</g>
<g>
</g>
<g>
</g>
</svg>
