<?xml version="1.0" encoding="iso-8859-1"?>
<!-- Generator: Adobe Illustrator 16.0.0, SVG Export Plug-In . SVG Version: 6.00 Build 0)  -->
<!DOCTYPE svg PUBLIC "-//W3C//DTD SVG 1.1//EN" "http://www.w3.org/Graphics/SVG/1.1/DTD/svg11.dtd">
<svg version="1.1" id="Capa_1" xmlns="http://www.w3.org/2000/svg" xmlns:xlink="http://www.w3.org/1999/xlink" x="0px" y="0px"
	 width="582.926px" height="582.926px" viewBox="0 0 582.926 582.926" style="enable-background:new 0 0 582.926 582.926;"
	 xml:space="preserve">
<g>
	<g>
		<path d="M561.531,522.439c0.09-5.631,1.312-11.306,0.312-17.075c-0.904-5.197-6.441-10.396-10.551-13.162
			c-14.051-9.469-41.963-19.946-42.912-39.551c-0.143-2.967-1.33-5.227-3.027-6.854c-1.434-3.945-5.195-7.16-9.561-6.867
			c-1.998,0.135-2.875-0.546-4.688-1.566c-1.682-0.946-3.379-1.804-5.111-2.587c-0.266-0.624-0.479-1.252-0.76-1.877
			c-1.383-3.08-5.549-5.186-8.809-5.051c-6.34,0.262-13.473,1.057-18.234,5.777c-3.5,3.472-5.527,7.69-5.699,12.289
			c-0.322,0.702-0.678,1.351-0.934,2.154c-2.787,8.666-14.777,7.887-22.375,10.298c-3.271,1.04-6.508,2.354-9.73,3.77
			c-1.861-5.932-4.465-11.542-8.475-16.34c-8.242-9.865-34.031-4.848-44.922-4.848c-5.107,0-12.26,1.008-15.961,5.015
			c-3.072,3.325-5.279,0.294-11.117,1.897c-9.184,2.525-14.02,9.682-15.324,17.891c-10.576-0.367-21.297-0.575-32.183-0.575
			c-4.072,0-8.111,0.045-12.142,0.098c-0.82-2.815-2.403-5.467-4.917-7.829c-6.242-5.871-16.854-6.275-24.913-5.912
			c-10.269,0.465-20.033,7.124-23.398,16.002c-16.41,1.191-32.322,2.795-47.553,4.814c-12.509-9.303-27.471-19.923-40.902-18.915
			c-22.656,1.697-45.304,13.28-66.569,20.808c-4.3,1.522-6.414,4.929-6.862,8.52c-0.486,0.767-0.926,1.599-1.236,2.582
			c-1.714,5.39-3.044,10.829-4.125,16.324C21.926,517.05,0,536.201,0,556.973h582.926
			C582.934,544.753,575.289,533.101,561.531,522.439z"/>
		<path d="M286.033,37.792v399.84c0,15.785,24.479,15.785,24.479,0V37.792C310.512,22.007,286.033,22.007,286.033,37.792z"/>
		<path d="M537.715,141.155c0.816-32.187-0.086-64.521-0.086-96.725c1.707-9.804-11.559-19.686-20.953-10.902
			c-25.506,23.835-54.619,19.751-83.098,4.684c-18.336-9.698-113.547-24.374-113.547,10.461c0,0.004,0,115.599,0,115.607
			c0.004,17.466,15.439,11.955,24.561,9.07c13.6-4.3,24.121-6.356,38.574-3.929c26.873,4.517,51.232,20.347,78.449,22.828
			C494.998,195.289,536.789,177.834,537.715,141.155z"/>
		<path d="M124.754,153.232c1.261,5.59,5.557,6.822,9.592,2.758l24.766-24.933l35.133,0.763c5.729,0.123,7.797-3.64,4.619-8.409
			L177.945,92.02l16.377-34.081c2.48-5.165-0.057-8.413-5.667-7.258l-35.121,7.23l-27.879-22.995
			c-4.418-3.643-8.531-1.987-9.184,3.705l-4.112,35.904L82.057,93.693c-4.843,3.064-4.463,7.291,0.844,9.449l33.632,13.656
			L124.754,153.232z"/>
		<path d="M106.031,214.815l-19.735,4.064l-15.667-12.921c-2.485-2.048-4.794-1.118-5.161,2.081l-2.309,20.176l-17.03,10.771
			c-2.721,1.722-2.509,4.097,0.474,5.308l18.898,7.675l4.619,20.469c0.71,3.142,3.121,3.835,5.394,1.55l13.917-14.011l19.743,0.429
			c3.219,0.069,4.378-2.044,2.595-4.725l-11.754-17.642l9.205-19.151C110.613,215.995,109.185,214.167,106.031,214.815z"/>
		<path d="M426.193,344.136l20.652-0.069l14.283,14.92c2.33,2.432,4.754,1.726,5.416-1.574l4.352-21.743l20.973-7.355
			c3.178-1.114,3.471-3.521,0.66-5.374l-17.602-11.591l-2.031-21.146c-0.322-3.354-2.721-4.37-5.357-2.277l-16.633,13.216
			l-20.564-4.627c-3.283-0.738-4.887,1.175-3.574,4.28l8.303,19.653l-11.725,18.56C421.555,341.851,422.822,344.147,426.193,344.136
			z"/>
		<path d="M522.26,290.365l7.666-0.024l5.301,5.536c0.865,0.901,1.768,0.641,2.012-0.583l1.615-8.07l7.785-2.729
			c1.18-0.412,1.289-1.306,0.244-1.995l-6.531-4.305l-0.756-7.85c-0.117-1.244-1.012-1.624-1.986-0.844l-6.174,4.904l-7.633-1.717
			c-1.221-0.273-1.812,0.437-1.326,1.587l3.08,7.295l-4.354,6.888C520.539,289.517,521.012,290.369,522.26,290.365z"/>
		<path d="M487.527,228.655l-9.094,1.873l-7.219-5.953c-1.146-0.943-2.211-0.514-2.377,0.958l-1.066,9.298l-7.846,4.961
			c-1.252,0.792-1.154,1.889,0.221,2.448l8.707,3.538l2.125,9.433c0.326,1.448,1.441,1.767,2.484,0.714l6.414-6.455l9.096,0.196
			c1.484,0.033,2.02-0.942,1.195-2.179l-5.414-8.127l4.238-8.825C489.637,229.198,488.98,228.357,487.527,228.655z"/>
	</g>
</g>
<g>
</g>
<g>
</g>
<g>
</g>
<g>
</g>
<g>
</g>
<g>
</g>
<g>
</g>
<g>
</g>
<g>
</g>
<g>
</g>
<g>
</g>
<g>
</g>
<g>
</g>
<g>
</g>
<g>
</g>
</svg>
