<?xml version="1.0" encoding="iso-8859-1"?>
<!-- Generator: Adobe Illustrator 16.0.0, SVG Export Plug-In . SVG Version: 6.00 Build 0)  -->
<!DOCTYPE svg PUBLIC "-//W3C//DTD SVG 1.1//EN" "http://www.w3.org/Graphics/SVG/1.1/DTD/svg11.dtd">
<svg version="1.1" id="Capa_1" xmlns="http://www.w3.org/2000/svg" xmlns:xlink="http://www.w3.org/1999/xlink" x="0px" y="0px"
	 width="550.801px" height="550.801px" viewBox="0 0 550.801 550.801" style="enable-background:new 0 0 550.801 550.801;"
	 xml:space="preserve">
<g>
	<path d="M205.546,380.505c0,0.049,0,0.104,0,0.153c0.055,0,0.11,0,0.159,0c0-0.049,0-0.104,0-0.153
		C205.656,380.505,205.601,380.505,205.546,380.505z"/>
	<path d="M136.341,434.948c0.043,0,0.104,0,0.153,0c0-0.036,0-0.073,0-0.109c-0.049,0-0.104,0-0.153,0
		C136.341,434.875,136.341,434.912,136.341,434.948z"/>
	<path d="M0,489.601c24.48,0,42.84,0,67.32,0c0-18.36,0-36.721,0-55.08c-24.48,0-42.84,0-67.32,0C0,452.88,0,471.24,0,489.601z"/>
	<path d="M483.48,165.24c-24.48,0-48.961,0-73.441,0c0-12.24,0-30.6,0-48.96c-18.359,0-42.84,0-67.318,0c0-18.36,0-36.72,0-55.08
		c-24.48,0-42.84,0-67.321,0c-24.48,0-42.84,0-67.32,0c0,18.36,0,36.72,0,55.08c-24.48,0-48.96,0-67.32,0c0,18.36,0,36.72,0,48.96
		c-24.48,0-48.96,0-73.44,0c0,18.36,0,36.72,0,55.08c-24.48,0-42.84,0-67.32,0c0,36.72,0,73.439,0,104.04c42.84,0,91.8,0,140.76,0
		c0,18.011,0,37.424,0,55.08c-22.093,0-49.572,0-73.44,0c0,18.359,0,36.72,0,55.08c23.868,0,51.206,0,73.44,0v-54.027
		c18.018,0.006,42.84,0.006,67.32,0.012c0,18.005,0,36.084,0,53.728c-12.24,0-55.08,0.478-67.32,0.716c0,17.345,0,36.292,0,54.651
		c18.36,0,42.84,0,67.32,0c0-18.359,0-36.72,0-55.079c18.36,0,42.84,0,67.32,0c24.481,0,48.959,0,67.321,0
		c0,18.359,0,36.72,0,55.079c24.479,0,48.959,0,67.318,0c0-18.359,0-37.307,0-54.651c-12.238-0.238-55.08-0.716-67.318-0.716
		c0-17.644,0-35.716,0-53.728c24.479-0.006,49.303-0.012,67.318-0.012v54.027c24.48,0,48.961,0,73.441,0c0-18.36,0-36.721,0-55.08
		c-24.48,0-48.961,0-73.441,0c0-17.656,0-37.069,0-55.08c48.961,0,97.92,0,140.762,0c0-30.601,0-67.32,0-104.04
		c-24.48,0-42.842,0-67.32,0C483.48,201.96,483.48,183.6,483.48,165.24z M140.76,220.32c18.36,0,42.84,0,67.32,0
		c0,18.36,0,36.72,0,55.08c-24.48,0-48.96,0-67.32,0C140.76,257.04,140.76,238.68,140.76,220.32z M275.4,379.44
		c-24.48,0-42.84,0-67.32,0c0-17.638,0-37.075,0-55.08c24.48,0,42.84,0,67.32,0c24.481,0,42.84,0,67.321,0
		c0,18.005,0,37.442,0,55.08C318.24,379.44,299.881,379.44,275.4,379.44z M410.039,275.4c-18.359,0-42.84,0-67.318,0
		c0-18.36,0-36.72,0-55.08c24.479,0,48.959,0,67.318,0C410.039,238.68,410.039,257.04,410.039,275.4z"/>
	<path d="M345.254,380.658c0-0.049,0-0.104,0-0.153c-0.055,0-0.111,0-0.16,0c0,0.049,0,0.104,0,0.153
		C345.143,380.658,345.199,380.658,345.254,380.658z"/>
	<path d="M414.305,434.948c0.051,0,0.111,0,0.154,0c0-0.036,0-0.073,0-0.109c-0.049,0-0.104,0-0.154,0
		C414.305,434.875,414.305,434.912,414.305,434.948z"/>
	<path d="M550.801,489.601c0-18.36,0-36.721,0-55.08c-24.48,0-42.842,0-67.32,0c0,18.359,0,36.72,0,55.08
		C507.959,489.601,526.32,489.601,550.801,489.601z"/>
</g>
<g>
</g>
<g>
</g>
<g>
</g>
<g>
</g>
<g>
</g>
<g>
</g>
<g>
</g>
<g>
</g>
<g>
</g>
<g>
</g>
<g>
</g>
<g>
</g>
<g>
</g>
<g>
</g>
<g>
</g>
</svg>
