<?xml version="1.0" encoding="iso-8859-1"?>
<!-- Generator: Adobe Illustrator 27.4.1, SVG Export Plug-In . SVG Version: 6.00 Build 0)  -->
<svg xmlns="http://www.w3.org/2000/svg" xmlns:xlink="http://www.w3.org/1999/xlink" version="1.1" id="Capa_1" x="0px" y="0px" viewBox="0 0 512 512" style="enable-background:new 0 0 512 512;" xml:space="preserve">
<g>
	<g>
		<path style="fill:#00183C;" d="M409.843,23.715L398.716,284.02l-270.999,23.01L101.545,54.492    C171.034,19.684,268.928,3.802,409.843,23.715z"/>
		<path style="fill:#FF8E00;" d="M416.723,18.42l-18.007,265.6l-8.131,0.413l14.292-249.751    C279.111-4.954,136.63,49.829,94.9,67.647l6.076-18.04C170.464,14.8,275.808-1.492,416.723,18.42z"/>
	</g>
	<g>
		<path style="fill:#FFCB22;" d="M505.251,287.18L138.039,307.03c0,0-4.764-65.106,43.669-36.523c0,0-20.246-34.935,8.734-19.055    c0,0-0.397-77.412,61.136-41.684c0,0,36.126-75.03,75.427-15.879c0,0,19.452-35.332,34.935,6.352c0,0,41.684-53.196,71.458,7.146    C433.397,207.386,537.01,218.105,505.251,287.18z"/>
		<g>
			<path style="fill:#3387D7;" d="M294.845,230.976l-18.251-77.862l-35.784,10.069l-12.966-35.242c0,0,7.31-2.191,5.527-6.366     c-1.785-4.172-38.488,11.303-37.357,15.321c1.132,4.019,9.324,0.629,9.324,0.629l16.548,32.81l-31.05,13.175l27.504,60.184     c0,0,11.798-15.929,31.384-1.109c0,0,7.94-11.644,18.261-1.323C267.985,241.263,282.007,219.631,294.845,230.976z"/>
			<polygon style="fill:#FF3E13;" points="226.151,134.92 219.815,104.455 194.164,120.207 211.061,141.251    "/>
			<path style="fill:#00183C;" d="M197.045,136.933l-0.047-1.588c21.228-0.637,34.197-14.104,34.325-14.24l1.154,1.09     C232.346,122.336,218.954,136.274,197.045,136.933z"/>
			<path style="fill:#00183C;" d="M201.349,121.797c-1.963,0-4.061-0.183-6.293-0.549l0.258-1.566     c7.838,1.282,13.881,0.22,17.967-3.165c5.158-4.274,5.375-10.896,5.376-10.962l1.588,0.036     c-0.006,0.299-0.222,7.386-5.933,12.134C211.05,120.435,206.705,121.797,201.349,121.797z"/>
			<polygon style="fill:#EBE0C9;" points="227.162,231.007 211.084,189.72 275.594,171.167 277.976,220.09    "/>
			<g>
				<path style="fill:#FF3E13;" d="M219.455,201.829c0.777-0.163,1.438-0.306,1.983-0.428c0.545-0.121,0.994-0.218,1.349-0.291      c0.423-0.091,0.768-0.16,1.033-0.211c0.284-0.054,0.635-0.135,1.054-0.243c0.716-0.184,1.714-0.496,2.995-0.938      c-0.242,0.212-0.422,0.421-0.536,0.626c-0.113,0.207-0.194,0.399-0.241,0.579c-0.056,0.218-0.087,0.422-0.095,0.61      c0.02,0.218,0.181,0.521,0.485,0.907c0.234,0.331,0.615,0.762,1.144,1.297c0.528,0.533,1.277,1.206,2.249,2.016      c0.531-1.476,0.94-2.632,1.228-3.47c0.286-0.836,0.496-1.467,0.629-1.893c0.149-0.503,0.232-0.831,0.249-0.984      c-0.041-0.082-0.142-0.187-0.305-0.312c-0.141-0.112-0.354-0.239-0.642-0.379c-0.286-0.14-0.695-0.3-1.226-0.48      c0.742-0.078,1.36-0.154,1.854-0.226s0.891-0.136,1.191-0.194c0.354-0.072,0.641-0.146,0.863-0.223s0.55-0.179,0.982-0.309      c0.361-0.111,0.85-0.256,1.465-0.434c0.614-0.176,1.406-0.407,2.374-0.695c-0.334,0.292-0.618,0.56-0.853,0.807      c-0.234,0.246-0.43,0.463-0.586,0.653c-0.182,0.232-0.345,0.433-0.487,0.6c-0.155,0.264-0.429,0.79-0.821,1.578      c-0.327,0.681-0.789,1.669-1.385,2.967c-0.597,1.297-1.392,3.051-2.385,5.26c1.51,0.952,2.725,1.699,3.646,2.242      c0.922,0.545,1.642,0.955,2.159,1.23c0.604,0.328,1.041,0.542,1.309,0.64c0.241,0.068,0.569,0.151,0.985,0.249      c0.359,0.094,0.823,0.202,1.395,0.324c0.572,0.124,1.294,0.258,2.17,0.404l-4.371,1.126c-0.366,0.094-0.807,0.227-1.321,0.396      c-0.444,0.151-0.993,0.33-1.647,0.536c-0.655,0.206-1.415,0.467-2.282,0.782c0.265-0.271,0.447-0.52,0.548-0.741      c0.102-0.221,0.16-0.408,0.177-0.561c0.029-0.176,0.002-0.316-0.081-0.426c-0.133-0.151-0.349-0.375-0.647-0.67      c-0.269-0.248-0.647-0.597-1.136-1.049c-0.487-0.449-1.151-1.042-1.991-1.774c-0.505,0.93-0.881,1.692-1.128,2.286      s-0.428,1.062-0.544,1.409c-0.119,0.403-0.188,0.718-0.203,0.944c0.05,0.193,0.143,0.374,0.279,0.543      c0.132,0.152,0.325,0.308,0.58,0.465c0.254,0.157,0.607,0.281,1.058,0.369l-7.658,2.334c0.516-0.597,0.937-1.129,1.264-1.595      c0.326-0.465,0.589-0.854,0.787-1.166c0.221-0.372,0.389-0.694,0.505-0.966c0.106-0.308,0.279-0.76,0.515-1.361      c0.185-0.511,0.448-1.203,0.792-2.073c0.343-0.87,0.785-1.988,1.326-3.354c-1.307-1.245-2.356-2.231-3.147-2.957      c-0.791-0.728-1.422-1.28-1.893-1.662c-0.541-0.438-0.934-0.736-1.18-0.896c-0.215-0.111-0.504-0.224-0.868-0.334      c-0.306-0.107-0.701-0.234-1.186-0.379C220.748,202.188,220.156,202.021,219.455,201.829z"/>
				<path style="fill:#FF3E13;" d="M234.766,197.887c0.777-0.163,1.438-0.306,1.982-0.428c0.545-0.121,0.995-0.219,1.349-0.291      c0.423-0.091,0.769-0.16,1.034-0.211c0.283-0.054,0.635-0.135,1.054-0.243c0.716-0.184,1.714-0.496,2.995-0.938      c-0.243,0.212-0.422,0.421-0.536,0.626c-0.114,0.207-0.195,0.399-0.241,0.579c-0.057,0.219-0.088,0.422-0.095,0.61      c0.019,0.218,0.181,0.521,0.485,0.907c0.234,0.331,0.614,0.762,1.143,1.297c0.528,0.533,1.278,1.205,2.249,2.016      c0.532-1.477,0.941-2.633,1.228-3.47c0.287-0.836,0.497-1.467,0.629-1.893c0.149-0.503,0.232-0.831,0.249-0.984      c-0.04-0.082-0.142-0.187-0.304-0.312c-0.141-0.112-0.354-0.239-0.642-0.379s-0.696-0.3-1.226-0.479      c0.742-0.079,1.359-0.155,1.854-0.227c0.492-0.071,0.89-0.136,1.191-0.194c0.354-0.072,0.641-0.146,0.863-0.223      s0.549-0.179,0.981-0.309c0.361-0.111,0.85-0.256,1.465-0.434c0.614-0.177,1.406-0.407,2.374-0.695      c-0.334,0.292-0.618,0.56-0.852,0.807c-0.235,0.246-0.431,0.463-0.586,0.653c-0.182,0.232-0.345,0.433-0.488,0.6      c-0.154,0.264-0.428,0.79-0.82,1.578c-0.328,0.68-0.789,1.669-1.385,2.967c-0.597,1.297-1.392,3.051-2.386,5.26      c1.511,0.951,2.726,1.699,3.647,2.242c0.922,0.545,1.641,0.955,2.158,1.23c0.605,0.328,1.042,0.542,1.309,0.64      c0.241,0.068,0.57,0.151,0.986,0.249c0.358,0.094,0.822,0.202,1.395,0.324c0.571,0.123,1.294,0.258,2.169,0.404l-4.37,1.125      c-0.366,0.095-0.808,0.227-1.322,0.396c-0.444,0.151-0.993,0.33-1.647,0.536s-1.415,0.467-2.282,0.782      c0.266-0.271,0.447-0.52,0.549-0.74s0.16-0.409,0.176-0.562c0.029-0.176,0.003-0.317-0.081-0.426      c-0.132-0.151-0.349-0.376-0.647-0.671c-0.269-0.247-0.646-0.596-1.135-1.047c-0.488-0.45-1.152-1.043-1.991-1.775      c-0.506,0.93-0.882,1.692-1.128,2.285c-0.248,0.594-0.429,1.063-0.544,1.41c-0.12,0.403-0.188,0.718-0.204,0.944      c0.05,0.193,0.143,0.374,0.279,0.543c0.133,0.152,0.326,0.308,0.581,0.465c0.254,0.157,0.606,0.28,1.058,0.369l-7.659,2.334      c0.516-0.597,0.937-1.129,1.264-1.595c0.326-0.465,0.589-0.854,0.788-1.166c0.22-0.372,0.388-0.694,0.504-0.966      c0.107-0.308,0.279-0.761,0.516-1.361c0.184-0.511,0.448-1.204,0.791-2.073c0.344-0.87,0.786-1.988,1.327-3.355      c-1.307-1.244-2.356-2.23-3.147-2.957c-0.792-0.727-1.423-1.279-1.894-1.661c-0.54-0.438-0.934-0.736-1.179-0.896      c-0.216-0.112-0.504-0.224-0.868-0.334c-0.307-0.107-0.702-0.234-1.186-0.379C236.059,198.246,235.466,198.078,234.766,197.887z      "/>
				<path style="fill:#FF3E13;" d="M250.076,193.944c0.777-0.163,1.438-0.306,1.982-0.428c0.545-0.121,0.995-0.219,1.349-0.291      c0.423-0.091,0.769-0.16,1.034-0.211c0.283-0.054,0.635-0.136,1.054-0.243c0.716-0.185,1.714-0.496,2.995-0.938      c-0.243,0.212-0.422,0.421-0.536,0.626c-0.114,0.206-0.195,0.399-0.241,0.579c-0.057,0.218-0.088,0.422-0.095,0.61      c0.019,0.218,0.181,0.521,0.485,0.907c0.234,0.331,0.614,0.762,1.143,1.296s1.278,1.206,2.249,2.017      c0.532-1.477,0.941-2.633,1.228-3.47c0.287-0.836,0.497-1.467,0.629-1.893c0.15-0.503,0.232-0.831,0.25-0.984      c-0.041-0.082-0.143-0.187-0.305-0.312c-0.141-0.112-0.354-0.239-0.642-0.379s-0.696-0.3-1.226-0.48      c0.742-0.078,1.359-0.154,1.854-0.226c0.492-0.071,0.89-0.136,1.191-0.194c0.354-0.072,0.641-0.146,0.863-0.223      s0.549-0.179,0.981-0.309c0.362-0.111,0.851-0.256,1.465-0.434c0.614-0.177,1.406-0.407,2.374-0.695      c-0.334,0.291-0.618,0.56-0.852,0.806c-0.235,0.247-0.431,0.464-0.586,0.654c-0.182,0.231-0.345,0.433-0.488,0.599      c-0.154,0.265-0.428,0.791-0.82,1.579c-0.328,0.68-0.789,1.669-1.385,2.966c-0.597,1.298-1.392,3.052-2.386,5.261      c1.511,0.951,2.726,1.698,3.647,2.242c0.922,0.545,1.641,0.955,2.158,1.23c0.605,0.328,1.042,0.542,1.31,0.64      c0.241,0.068,0.569,0.151,0.985,0.249c0.358,0.094,0.822,0.202,1.395,0.324c0.571,0.123,1.294,0.258,2.169,0.404l-4.37,1.125      c-0.366,0.095-0.808,0.227-1.322,0.396c-0.444,0.152-0.993,0.331-1.647,0.537s-1.415,0.467-2.282,0.782      c0.266-0.272,0.448-0.521,0.549-0.741c0.102-0.221,0.16-0.408,0.176-0.561c0.029-0.176,0.003-0.317-0.081-0.426      c-0.132-0.151-0.349-0.376-0.647-0.671c-0.269-0.247-0.646-0.597-1.135-1.048c-0.488-0.449-1.152-1.042-1.991-1.774      c-0.506,0.93-0.882,1.691-1.128,2.285c-0.248,0.594-0.429,1.063-0.544,1.41c-0.12,0.403-0.188,0.718-0.204,0.944      c0.05,0.193,0.143,0.374,0.279,0.543c0.133,0.152,0.326,0.307,0.581,0.465c0.254,0.157,0.606,0.28,1.058,0.369l-7.659,2.334      c0.516-0.597,0.937-1.129,1.264-1.595c0.326-0.465,0.589-0.854,0.788-1.166c0.22-0.372,0.388-0.694,0.505-0.966      c0.106-0.308,0.278-0.761,0.515-1.361c0.184-0.512,0.448-1.204,0.791-2.073c0.344-0.87,0.786-1.988,1.327-3.355      c-1.307-1.244-2.356-2.23-3.147-2.957c-0.792-0.727-1.423-1.279-1.894-1.661c-0.54-0.438-0.934-0.736-1.179-0.896      c-0.216-0.112-0.504-0.224-0.868-0.335c-0.307-0.106-0.702-0.233-1.186-0.378C251.369,194.304,250.776,194.136,250.076,193.944z      "/>
			</g>
		</g>
		<g>
			<path style="fill:#FF3E13;" d="M468.876,254.84l-8.847-26.769l26.167-26.406l23.025,5.69L512,236.467l-25.986,23.88     C486.014,260.347,486.094,249.526,468.876,254.84z"/>
			<polygon style="opacity:0.3;fill:#EBE0C9;" points="487.188,205.172 464.362,228.071 471.706,251.023    "/>
			<polygon style="opacity:0.3;fill:#EBE0C9;" points="504.656,210.729 501.281,237.807 510.214,236.174    "/>
		</g>
		<g>
			<path style="fill:#FF3E13;" d="M315.096,208.633l-10.962-13.042l8.771-20.68l14.196-1.966l8.081,15.717l-9.233,19.224     C325.948,207.885,323.566,201.794,315.096,208.633z"/>
			<polygon style="opacity:0.3;fill:#EBE0C9;" points="314.246,176.657 306.566,194.621 315.829,205.857    "/>
			<polygon style="opacity:0.3;fill:#EBE0C9;" points="325.295,175.861 329.467,191.814 334.114,188.897    "/>
		</g>
		<g>
			<path style="fill:#FF3E13;" d="M215.285,284.665l4.84-16.348l-14.319-16.126l-12.601,3.474l-1.52,17.781l14.22,14.585     C205.905,288.03,205.861,281.421,215.285,284.665z"/>
			<polygon style="opacity:0.3;fill:#EBE0C9;" points="205.263,254.333 217.754,268.317 213.736,282.336    "/>
			<polygon style="opacity:0.3;fill:#EBE0C9;" points="195.704,257.726 197.549,274.263 192.661,273.266    "/>
		</g>
		<g>
			<path style="fill:#3387D7;" d="M433.059,230.461l13.161-10.84l-2.842-21.378l-12.386-4.173l-11.21,13.884l3.621,20.045     C423.402,227.998,427.065,222.498,433.059,230.461z"/>
			<polygon style="opacity:0.3;fill:#EBE0C9;" points="441.73,199.715 444.255,218.294 433.079,227.664    "/>
			<polygon style="opacity:0.3;fill:#EBE0C9;" points="431.909,197.176 424.182,211.914 420.69,208.352    "/>
		</g>
		<g>
			<path style="fill:#EBE0C9;" d="M387.014,244.09l55.301-137.255l-7.82-3.01c0,0-98.168,73.821-83.871,140.546     c0,0,11.852-13.297,19.263,0C369.886,244.371,380.587,233.159,387.014,244.09z"/>
			<path style="fill:#FFCB22;" d="M474.508,50.738c-6.237-1.824-12.069-0.72-13.011,2.472c-0.662,2.292,1.359,5.059,4.862,7.096     l-3.55,5.654c0,0-35.811-32.678-52.03-2.937c-10.423,19.107-0.661,32.303,16.128,40.439l-8.47,9.561l7.426,10.892l17.392-3.323     l1.503-10.844c5.177,1.294,10.544,2.267,15.871,2.929l2.053-5.553l-15.487-3.903l26.301-40.338     c5.275,0.954,9.807-0.242,10.621-3.036C485.058,56.655,480.764,52.578,474.508,50.738z M436.982,101.392     c-15.867-31.156,24.069-31.95,24.069-31.95L436.982,101.392z"/>
			<path style="opacity:0.2;fill:#EBE0C9;" d="M413.344,63.482c5.696-10.452,13.95-12.753,22.078-11.528     c-5.736,1.647-11.061,5.7-15.259,13.375c-6.749,12.378-6.079,22.589-0.729,30.81C409.633,88.448,405.584,77.702,413.344,63.482z"/>
			<path style="fill:#FF3E13;" d="M465.633,55.365c0.245-1.879,3.619-2.987,7.535-2.472c3.914,0.515,6.887,2.453,6.64,4.331     c-0.247,1.878-3.62,2.985-7.535,2.47C468.359,59.181,465.387,57.241,465.633,55.365z"/>

				<rect x="441.216" y="97.119" transform="matrix(0.1762 -0.9844 0.9844 0.1762 263.4779 519.448)" style="fill:#00183C;" width="1.745" height="10.376"/>

				<rect x="458.004" y="74.781" transform="matrix(0.558 -0.8298 0.8298 0.558 137.6712 415.4799)" style="fill:#00183C;" width="1.746" height="7.434"/>

				<rect x="446.087" y="90.984" transform="matrix(0.4478 -0.8941 0.8941 0.4478 161.4773 452.3598)" style="fill:#00183C;" width="1.745" height="8.935"/>

				<rect x="451.605" y="83.506" transform="matrix(0.5221 -0.8529 0.8529 0.5221 141.5252 427.7841)" style="fill:#00183C;" width="1.746" height="8.204"/>
		</g>
		<g>
			<path style="fill:#EBE0C9;" d="M273.85,258.416c0,3.858-3.233,6.988-7.223,6.988c-3.99,0-7.223-3.13-7.223-6.988     c0-3.861,3.233-6.989,7.223-6.989C270.617,251.427,273.85,254.555,273.85,258.416z"/>
			<path style="fill:#EBE0C9;" d="M283.644,265.405c0,3.858-3.233,6.986-7.223,6.986c-3.99,0-7.224-3.128-7.224-6.986     c0-3.862,3.233-6.989,7.224-6.989C280.411,258.416,283.644,261.544,283.644,265.405z"/>
			<path style="fill:#EBE0C9;" d="M295.196,270.008c0,3.858-3.233,6.986-7.223,6.986c-3.989,0-7.224-3.128-7.224-6.986     c0-3.861,3.235-6.989,7.224-6.989C291.962,263.019,295.196,266.146,295.196,270.008z"/>
			<path style="fill:#EBE0C9;" d="M309.141,270.008c0,3.858-3.233,6.986-7.223,6.986c-3.99,0-7.223-3.128-7.223-6.986     c0-3.861,3.233-6.989,7.223-6.989C305.908,263.019,309.141,266.146,309.141,270.008z"/>
			<ellipse style="fill:#EBE0C9;" cx="312.471" cy="262.11" rx="7.223" ry="6.988"/>
			<path style="fill:#EBE0C9;" d="M326.917,254.224c0,3.858-3.233,6.986-7.224,6.986c-3.99,0-7.223-3.128-7.223-6.986     c0-3.861,3.233-6.989,7.223-6.989C323.684,247.235,326.917,250.363,326.917,254.224z"/>
			<path style="fill:#EBE0C9;" d="M330.287,243.368c0,3.858-3.233,6.986-7.223,6.986c-3.99,0-7.223-3.128-7.223-6.986     c0-3.861,3.233-6.989,7.223-6.989C327.054,236.379,330.287,239.506,330.287,243.368z"/>
		</g>
		<path style="opacity:0.3;fill:#EBE0C9;" d="M366.968,258.509c0,4.134-5.628,7.485-12.572,7.485c-6.943,0-12.57-3.351-12.57-7.485    c0-4.134,5.628-7.486,12.57-7.486C361.34,251.023,366.968,254.375,366.968,258.509z"/>
		<path style="opacity:0.4;fill:#EBE0C9;" d="M393.754,272.684c0,3.694-4.337,6.69-9.687,6.69c-5.35,0-9.687-2.996-9.687-6.69    c0-3.694,4.337-6.69,9.687-6.69C389.417,265.994,393.754,268.99,393.754,272.684z"/>
		<path style="opacity:0.5;fill:#EBE0C9;" d="M431.886,241.532c0,2.847-4.55,5.154-10.162,5.154c-5.614,0-10.162-2.308-10.162-5.154    c0-2.846,4.548-5.153,10.162-5.153C427.336,236.379,431.886,238.686,431.886,241.532z"/>
		<path style="opacity:0.3;fill:#EBE0C9;" d="M446.734,261.21c0,4.768-5.598,8.634-12.505,8.634c-6.907,0-12.505-3.866-12.505-8.634    c0-4.769,5.598-8.635,12.505-8.635C441.136,252.576,446.734,256.442,446.734,261.21z"/>
		<path style="opacity:0.2;fill:#EBE0C9;" d="M461.451,247.237c0,2.245-3.41,4.067-7.616,4.067c-4.206,0-7.615-1.822-7.615-4.067    c0-2.249,3.41-4.069,7.615-4.069C458.041,243.168,461.451,244.988,461.451,247.237z"/>
		<path style="opacity:0.2;fill:#EBE0C9;" d="M420.105,274.263c0,2.245-3.41,4.068-7.615,4.068c-4.206,0-7.616-1.822-7.616-4.068    c0-2.249,3.41-4.069,7.616-4.069C416.695,270.194,420.105,272.014,420.105,274.263z"/>
		<path style="opacity:0.2;fill:#EBE0C9;" d="M417.387,258.509c0,3.897-5.601,7.056-12.511,7.056    c-6.911,0-12.513-3.159-12.513-7.056c0-3.897,5.601-7.056,12.513-7.056C411.786,251.453,417.387,254.612,417.387,258.509z"/>
		<path style="opacity:0.4;fill:#EBE0C9;" d="M315.841,221.678c0,2.338-3.117,4.235-6.961,4.235c-3.844,0-6.961-1.897-6.961-4.235    s3.117-4.233,6.961-4.233C312.723,217.444,315.841,219.339,315.841,221.678z"/>
		<path style="opacity:0.4;fill:#EBE0C9;" d="M462.772,272.683c0,2.338-3.117,4.235-6.961,4.235c-3.844,0-6.961-1.897-6.961-4.235    c0-2.339,3.117-4.233,6.961-4.233C459.655,268.449,462.772,270.344,462.772,272.683z"/>
		<path style="opacity:0.5;fill:#EBE0C9;" d="M341.826,221.678c0,2.338-3.7,4.235-8.265,4.235c-4.565,0-8.266-1.897-8.266-4.235    s3.7-4.233,8.266-4.233C338.126,217.444,341.826,219.339,341.826,221.678z"/>
		<path style="opacity:0.4;fill:#EBE0C9;" d="M349.201,197.868c0,2.097-2.659,3.798-5.938,3.798c-3.28,0-5.938-1.701-5.938-3.798    c0-2.096,2.658-3.798,5.938-3.798C346.542,194.07,349.201,195.771,349.201,197.868z"/>
		<path style="opacity:0.3;fill:#EBE0C9;" d="M305.247,246.136c0,3.886-6.105,7.037-13.635,7.037c-7.53,0-13.636-3.151-13.636-7.037    c0-3.886,6.105-7.037,13.636-7.037C299.142,239.099,305.247,242.249,305.247,246.136z"/>
		<path style="opacity:0.2;fill:#EBE0C9;" d="M248.666,254.673c0,4.108-5.925,7.437-13.232,7.437c-7.309,0-13.234-3.33-13.234-7.437    c0-4.108,5.925-7.437,13.234-7.437C242.741,247.235,248.666,250.565,248.666,254.673z"/>
		<ellipse style="opacity:0.5;fill:#EBE0C9;" cx="249.989" cy="273.683" rx="9.528" ry="5.558"/>
		<path style="opacity:0.2;fill:#EBE0C9;" d="M171.651,283.477c0,3.579-5.333,6.482-11.91,6.482c-6.577,0-11.91-2.903-11.91-6.482    c0-3.581,5.333-6.484,11.91-6.484C166.318,276.994,171.651,279.896,171.651,283.477z"/>
		<ellipse style="opacity:0.4;fill:#EBE0C9;" cx="185.373" cy="283.079" rx="6.311" ry="3.705"/>
		<path style="opacity:0.3;fill:#EBE0C9;" d="M456.158,233.598c0,3.038-3.916,5.501-8.746,5.501c-4.829,0-8.746-2.463-8.746-5.501    c0-3.038,3.917-5.5,8.746-5.5C452.243,228.098,456.158,230.56,456.158,233.598z"/>
		<path style="opacity:0.2;fill:#EBE0C9;" d="M340.238,277.364c0,2.745-3.844,4.972-8.588,4.972c-4.742,0-8.586-2.227-8.586-4.972    c0-2.748,3.844-4.973,8.586-4.973C336.394,272.391,340.238,274.616,340.238,277.364z"/>
		<path style="opacity:0.2;fill:#EBE0C9;" d="M315.154,233.6c0,2.745-3.844,4.972-8.588,4.972c-4.742,0-8.587-2.227-8.587-4.972    c0-2.748,3.844-4.973,8.587-4.973C311.309,228.626,315.154,230.852,315.154,233.6z"/>
		<path style="opacity:0.2;fill:#EBE0C9;" d="M211.084,243.695c0,2.745-3.844,4.972-8.588,4.972c-4.742,0-8.586-2.227-8.586-4.972    c0-2.748,3.844-4.973,8.586-4.973C207.24,238.722,211.084,240.947,211.084,243.695z"/>
		<path style="opacity:0.2;fill:#EBE0C9;" d="M240.66,284.433c0,2.745-3.844,4.972-8.588,4.972c-4.742,0-8.586-2.227-8.586-4.972    c0-2.748,3.844-4.973,8.586-4.973C236.815,279.459,240.66,281.685,240.66,284.433z"/>
		<path style="opacity:0.3;fill:#EBE0C9;" d="M301.918,181.963c0,2.933-3.449,5.308-7.703,5.308c-4.255,0-7.704-2.376-7.704-5.308    c0-2.931,3.449-5.307,7.704-5.307C298.469,176.657,301.918,179.033,301.918,181.963z"/>
		<path style="opacity:0.5;fill:#EBE0C9;" d="M304.134,202.787c0,1.695-2.464,3.07-5.502,3.07c-3.039,0-5.504-1.376-5.504-3.07    c0-1.697,2.464-3.072,5.504-3.072C301.67,199.715,304.134,201.09,304.134,202.787z"/>
		<path style="opacity:0.5;fill:#EBE0C9;" d="M381.447,250.354c0,1.695-2.464,3.07-5.502,3.07c-3.04,0-5.504-1.375-5.504-3.07    c0-1.697,2.464-3.072,5.504-3.072C378.983,247.282,381.447,248.657,381.447,250.354z"/>
		<path style="opacity:0.5;fill:#EBE0C9;" d="M468.276,260.347c0,1.695-2.464,3.07-5.502,3.07c-3.039,0-5.504-1.375-5.504-3.07    c0-1.697,2.464-3.072,5.504-3.072C465.811,257.275,468.276,258.65,468.276,260.347z"/>
		<path style="opacity:0.5;fill:#EBE0C9;" d="M410.378,228.985c0,1.695-2.464,3.07-5.502,3.07c-3.039,0-5.504-1.375-5.504-3.07    c0-1.697,2.464-3.072,5.504-3.072C407.914,225.913,410.378,227.288,410.378,228.985z"/>
		<path style="opacity:0.5;fill:#EBE0C9;" d="M354.703,274.263c0,1.695-2.464,3.07-5.502,3.07c-3.04,0-5.504-1.375-5.504-3.07    c0-1.697,2.464-3.072,5.504-3.072C352.239,271.191,354.703,272.566,354.703,274.263z"/>
		<path style="opacity:0.5;fill:#EBE0C9;" d="M420.848,201.667c0,1.695-2.464,3.07-5.502,3.07c-3.039,0-5.503-1.375-5.503-3.07    c0-1.697,2.464-3.072,5.503-3.072C418.384,198.595,420.848,199.97,420.848,201.667z"/>
		<ellipse style="opacity:0.3;fill:#EBE0C9;" cx="343.149" cy="211.161" rx="4.764" ry="2.528"/>
		<path style="opacity:0.4;fill:#EBE0C9;" d="M486.014,269.462c0,3.559-4.314,6.445-9.635,6.445c-5.322,0-9.636-2.886-9.636-6.445    c0-3.559,4.314-6.443,9.636-6.443C481.7,263.019,486.014,265.903,486.014,269.462z"/>
		<path style="opacity:0.3;fill:#EBE0C9;" d="M507.501,257.717c0,1.929-2.548,3.494-5.69,3.494c-3.144,0-5.691-1.565-5.691-3.494    c0-1.929,2.548-3.494,5.691-3.494C504.954,254.223,507.501,255.787,507.501,257.717z"/>
		<path style="opacity:0.2;fill:#EBE0C9;" d="M505.748,270.129c0,2.283-2.866,4.134-6.402,4.134c-3.536,0-6.401-1.852-6.401-4.134    c0-2.283,2.866-4.134,6.401-4.134C502.882,265.994,505.748,267.846,505.748,270.129z"/>
	</g>
	<g>
		<path style="fill:#FF8E00;" d="M512,278.304l-24.359,167.814l-183.662,56.087l-151.395-47.099l-28.043-156.158    c0,0-107.441,16.959-123.32-95.277c-8.225-58.087,25.122-116.747,99.755-154.064l33.093,247.752l264.647-13.339L512,278.304z"/>
		<polygon style="fill:#DA4F16;" points="146.772,316.954 260.576,310.074 285.454,475.749 159.476,443.99   "/>

			<rect x="231.727" y="394.56" transform="matrix(0.1025 -0.9947 0.9947 0.1025 -221.5982 620.9251)" style="fill:#00183C;" width="3.177" height="77.424"/>

			<rect x="202.746" y="366.749" transform="matrix(0.1032 -0.9947 0.9947 0.1032 -223.6264 570.0768)" style="fill:#00183C;" width="3.178" height="84.613"/>

			<rect x="216.84" y="339.046" transform="matrix(0.0176 -0.9998 0.9998 0.0176 -173.4274 599.6648)" style="fill:#00183C;" width="3.176" height="98.071"/>

			<rect x="207.114" y="310.007" transform="matrix(0.004 -1 1 0.004 -151.3699 566.4855)" style="fill:#00183C;" width="3.176" height="98.453"/>
		<polygon style="fill:#DA4F16;" points="304.509,478.925 296.57,310.074 492.945,298.958 477.596,437.11   "/>

			<rect x="307.624" y="435.851" transform="matrix(0.9851 -0.1718 0.1718 0.9851 -69.4471 72.2107)" style="fill:#00183C;" width="149.916" height="3.177"/>

			<rect x="342.451" y="406.475" transform="matrix(0.9877 -0.1563 0.1563 0.9877 -58.7293 69.0086)" style="fill:#00183C;" width="134.253" height="3.175"/>

			<rect x="309.438" y="372.6" transform="matrix(0.9848 -0.1739 0.1739 0.9848 -59.0498 74.2875)" style="fill:#00183C;" width="170.108" height="3.175"/>

			<rect x="319.302" y="348.912" transform="matrix(0.9923 -0.124 0.124 0.9923 -40.4449 51.2327)" style="fill:#00183C;" width="144.027" height="3.176"/>
		<g>
			<path style="fill:#FFCB22;" d="M362.336,302.663l84.955-3.705c0,0,4.336,94.036-38.508,96.6     C362.336,398.337,362.336,302.663,362.336,302.663z"/>
			<path style="fill:#00183C;" d="M433,328.864c0-8.771-11.375-15.879-25.407-15.879c-14.033,0-25.407,7.109-25.407,15.879     c0,7.937,9.324,14.493,21.495,15.672l-4.424,35.936l23.422-2.779l-5.012-34.253C426.685,341.003,433,335.397,433,328.864z"/>
			<path style="fill:#00183C;" d="M411.365,394.488c-9.771-1.225-17.771-5.854-23.777-13.76c-19.148-25.206-12.049-75-11.737-77.107     l3.142,0.465c-0.074,0.502-7.214,50.587,11.128,74.725c5.47,7.197,12.75,11.41,21.639,12.525L411.365,394.488z"/>
		</g>
		<path style="fill:#DA4F16;" d="M91.194,85.643L125.07,288.9c0,0-101.232-10.948-106.921-83.631    c-5.69-72.683,71.458-119.626,71.458-119.626"/>

			<rect x="101.318" y="178.685" transform="matrix(0.9826 -0.1859 0.1859 0.9826 -41.1486 23.1556)" style="fill:#00183C;" width="3.175" height="104.643"/>

			<rect x="76.307" y="113.465" transform="matrix(0.991 -0.1342 0.1342 0.991 -23.8538 12.1108)" style="fill:#00183C;" width="3.176" height="139.012"/>

			<rect x="67.276" y="178.705" transform="matrix(0.9807 -0.1957 0.1957 0.9807 -42.6728 17.8247)" style="fill:#00183C;" width="3.175" height="92.298"/>

			<rect x="43.555" y="157.977" transform="matrix(0.9958 -0.0918 0.0918 0.9958 -18.278 4.9924)" style="fill:#00183C;" width="3.177" height="86.511"/>
	</g>
</g>
<g>
</g>
<g>
</g>
<g>
</g>
<g>
</g>
<g>
</g>
<g>
</g>
<g>
</g>
<g>
</g>
<g>
</g>
<g>
</g>
<g>
</g>
<g>
</g>
<g>
</g>
<g>
</g>
<g>
</g>
</svg>
